<?xml version="1.0" encoding="UTF-8" standalone="no"?><svg xmlns="http://www.w3.org/2000/svg" xmlns:xlink="http://www.w3.org/1999/xlink" fill-opacity="0" stroke="red" height="1074.5" preserveAspectRatio="xMidYMid meet" version="1" viewBox="37.3 36.7 1516.5 1074.5" width="1516.5" zoomAndPan="magnify"><g id="change1_1"><path d="M 1551.71875 292.257812 C 1547.539062 290.085938 1541.941406 290.53125 1539.378906 286.570312 C 1534.519531 279.058594 1527.671875 272.839844 1519.730469 268.722656 C 1523.460938 269.039062 1533.421875 273.972656 1530.800781 267.402344 C 1529.300781 264.375 1529.941406 260.417969 1532.328125 258.023438 C 1536.839844 257.347656 1544.980469 263.042969 1545.871094 255.992188 C 1544.929688 252.375 1540.730469 250.53125 1537 250.597656 C 1533.261719 250.664062 1529.691406 252.09375 1525.988281 252.652344 C 1513.320312 254.574219 1499.808594 246.339844 1488.03125 251.390625 C 1489.148438 248.589844 1486.988281 245.425781 1484.328125 244.007812 C 1481.660156 242.585938 1478.558594 242.292969 1475.710938 241.269531 C 1469.410156 239 1464.699219 232.84375 1464.148438 226.171875 C 1461.820312 217.34375 1434.78125 229.628906 1421.191406 235.3125 C 1419.410156 236.054688 1416.28125 236.148438 1414.511719 236.132812 C 1420.339844 225.1875 1432.511719 213.386719 1423.660156 204.425781 C 1419.628906 198 1387.140625 205.59375 1370.589844 196.574219 C 1378.199219 196.074219 1385.820312 195.574219 1393.429688 195.074219 C 1405.390625 194.277344 1400.898438 176.589844 1387.859375 172.925781 C 1377.671875 171.003906 1370.019531 173.128906 1361.089844 173.226562 C 1363.71875 168.785156 1359.578125 162.96875 1355.640625 160.421875 C 1337.351562 148.570312 1315.429688 151.171875 1294.929688 154.058594 C 1291.621094 147.429688 1286.199219 142.789062 1280.191406 140.601562 C 1284.78125 140.421875 1288.910156 139.25 1291.179688 136.039062 C 1292.050781 132.761719 1292.921875 129.46875 1293.78125 126.191406 C 1295.210938 120.769531 1296.429688 114.320312 1292.730469 110.101562 C 1289.761719 106.710938 1284.761719 106.179688 1280.269531 105.988281 C 1284.011719 104.128906 1283.769531 98.230469 1280.839844 95.261719 C 1277.898438 92.289062 1273.480469 91.460938 1269.359375 90.789062 C 1263.128906 80.429688 1249.691406 75.011719 1238.019531 78.171875 C 1235.621094 78.820312 1233.210938 79.800781 1230.730469 79.589844 C 1226.988281 79.269531 1223.640625 76.28125 1219.929688 76.851562 C 1214.800781 77.640625 1213.210938 84.148438 1212.78125 89.320312 C 1207.671875 84.949219 1198.328125 76.398438 1194.570312 81.328125 C 1193.058594 84.210938 1191.550781 87.089844 1190.039062 89.96875 C 1187.949219 85.539062 1181.410156 87.300781 1176.539062 86.761719 C 1173.910156 86.460938 1171.46875 85.300781 1169 84.351562 C 1163.449219 82.199219 1157.550781 81.070312 1151.699219 79.949219 C 1147.410156 79.128906 1143.128906 78.320312 1138.839844 77.5 C 1131.628906 76.121094 1124.140625 74.75 1117.011719 76.5 C 1109.871094 78.261719 1103.179688 84.070312 1102.878906 91.410156 C 1101.929688 86.699219 1097.011719 83.558594 1092.210938 83.359375 C 1087.398438 83.160156 1082.800781 85.308594 1078.800781 87.96875 C 1067.628906 84.398438 1056.460938 80.839844 1045.28125 77.28125 C 1042.101562 76.261719 1038.699219 75.238281 1035.46875 76.128906 C 1030.039062 77.621094 1027.191406 83.910156 1021.960938 85.988281 C 1019.921875 86.800781 1017.628906 86.921875 1015.730469 87.980469 C 1010.980469 90.628906 1005.820312 100.621094 1005.820312 100.621094 C 1005.820312 100.621094 994.003906 99.628906 988.078125 100.691406 C 984.449219 101.339844 978.515625 104.171875 976.148438 105.351562 C 975.679688 105.488281 975.210938 105.628906 974.742188 105.769531 C 974.03125 105.578125 972.382812 105.171875 970.367188 104.839844 C 970.300781 104.800781 970.230469 104.761719 970.164062 104.71875 C 969.863281 101.101562 967.1875 97.488281 964.90625 95.890625 C 955.203125 89.101562 945.40625 90 935.980469 92.820312 C 932.730469 93.121094 929.601562 93.941406 926.777344 95.351562 C 924.335938 90.871094 921.269531 87.710938 918.089844 86 C 923.652344 82.769531 929.21875 79.53125 934.785156 76.300781 C 950.800781 82.511719 968.363281 84.679688 985.410156 82.570312 C 988.960938 82.128906 993.628906 79.359375 991.828125 76.269531 C 991.203125 75.191406 989.953125 74.660156 988.773438 74.261719 C 985.488281 73.148438 982.0625 72.46875 978.601562 72.238281 C 981.707031 69.359375 984.914062 66.339844 986.425781 62.390625 C 987.933594 58.429688 987.171875 53.261719 983.574219 51.03125 C 980.09375 48.859375 975.59375 50.140625 971.511719 49.789062 C 965.976562 49.300781 961.261719 45.78125 956.445312 43.011719 C 951.632812 40.230469 945.636719 38.121094 940.640625 40.539062 C 937.472656 42.078125 931.179688 44.519531 931.179688 44.519531 C 931.179688 44.519531 927.257812 41.058594 925.175781 39.390625 C 921.792969 36.679688 916.90625 37.21875 912.683594 38.210938 C 901.1875 40.890625 890.214844 45.78125 880.535156 52.53125 C 874.859375 47.160156 866.421875 41.691406 859.921875 46.019531 C 857.785156 47.449219 856.273438 49.78125 853.90625 50.769531 C 849.945312 52.441406 845.496094 49.738281 841.203125 49.949219 C 835.613281 50.21875 831.132812 56.410156 832.621094 61.800781 C 827.757812 60.449219 822.769531 62.890625 818.476562 65.671875 C 815.175781 64.351562 811.648438 63.730469 808.21875 63.839844 C 807.730469 63.851562 807.246094 63.890625 806.761719 63.921875 C 805.367188 62.75 803.921875 61.890625 802.5 61.398438 C 796.996094 59.511719 791.808594 61.859375 786.820312 64.191406 C 776.953125 68.808594 767.085938 73.429688 757.21875 78.050781 C 755.011719 79.078125 752.71875 80.238281 750.675781 81.929688 C 741.800781 78.28125 731.90625 78.429688 723.160156 82.550781 C 722.328125 82.039062 721.492188 81.519531 720.65625 81 C 718.484375 76.25 713.585938 74.671875 708.433594 74.699219 C 703.910156 73.550781 699.273438 74.148438 695.789062 77.078125 C 692.269531 78.011719 688.753906 78.949219 685.234375 79.878906 C 682.699219 76.980469 679.648438 75.171875 676.851562 74.371094 C 671.597656 72.859375 666.175781 73.269531 661.1875 68.628906 C 658.613281 66.238281 656.34375 62.640625 653.785156 60.191406 C 646.101562 52.828125 636.660156 58.890625 635.019531 72.238281 C 630.96875 63.171875 624.070312 59.53125 618.375 60.679688 C 612.679688 61.839844 607.898438 66.890625 603.265625 71.851562 C 599.082031 76.328125 594.902344 80.808594 590.71875 85.289062 C 583.011719 79.410156 574.496094 79.910156 568.390625 86.601562 C 565.738281 78.089844 559.109375 79.101562 554.621094 81.730469 C 547.066406 86.160156 539.511719 90.601562 531.953125 95.03125 C 519.867188 85.390625 506.902344 94.859375 498.214844 107.488281 C 497.164062 109.019531 492.078125 114.238281 493.242188 122.578125 C 493.703125 125.511719 494.277344 127.960938 494.945312 130.011719 C 492.859375 131.46875 490.773438 132.941406 488.6875 134.410156 C 485.199219 128.890625 485.964844 120.761719 480.757812 116.828125 C 478.375 115.019531 475.25 114.578125 472.269531 114.359375 C 467.152344 113.980469 461.808594 114.121094 457.191406 116.351562 C 452.574219 118.589844 448.886719 123.398438 449.34375 128.5 C 447.175781 126.601562 443.933594 128.660156 441.089844 129.148438 C 433.523438 130.449219 429.128906 120.449219 422 117.601562 C 414.363281 114.550781 406.304688 120.398438 400.15625 125.859375 C 398.789062 127.078125 397.375 128.359375 396.710938 130.070312 C 386.558594 126.5 374.527344 129 366.648438 136.328125 C 364.113281 143.191406 354.683594 160.945312 369.136719 157.3125 C 373.300781 155.980469 377.613281 154.632812 381.964844 155.050781 C 386.320312 155.472656 390.769531 158.136719 391.882812 162.367188 C 392.933594 166.445312 400.847656 166.914062 409.382812 165.867188 C 412.109375 168.433594 415.222656 170.578125 418.363281 172.605469 C 418.683594 172.8125 419.011719 173.019531 419.335938 173.226562 C 413.398438 174.386719 407.492188 175.734375 401.601562 177.089844 C 395.003906 178.605469 388.40625 180.121094 381.808594 181.640625 C 378.8125 182.328125 375.734375 183.054688 373.230469 184.832031 C 369.484375 187.488281 363.253906 194.210938 363.253906 194.210938 C 363.253906 194.210938 356.703125 195.316406 353.386719 195.792969 C 347.453125 196.644531 341.988281 200.324219 338.972656 205.503906 C 337.632812 207.804688 336.765625 210.347656 335.546875 212.714844 C 332.339844 218.945312 328.160156 215.011719 321.507812 217.203125 C 306.617188 221.261719 306.617188 237.503906 323.503906 233.066406 C 335.71875 228.03125 347.746094 231.566406 360.089844 234.195312 C 358.699219 235.777344 358.753906 237.921875 359.632812 239.855469 C 359.097656 240.621094 358.367188 241.28125 357.296875 241.773438 C 347.820312 239.613281 338.15625 238.285156 328.445312 237.816406 C 323.179688 237.558594 317.699219 237.597656 312.914062 239.8125 C 307.742188 242.203125 301.304688 246.859375 297.371094 242.734375 C 295.605469 240.882812 295.367188 237.820312 293.296875 236.3125 C 290.828125 234.511719 287.390625 235.957031 284.714844 237.425781 C 279.644531 240.210938 274.578125 242.992188 269.507812 245.777344 C 262.550781 247.308594 255.6875 243.492188 248.765625 241.8125 C 241.839844 240.136719 232.398438 242.359375 231.46875 249.425781 C 228.359375 248.746094 225.078125 248.074219 222.054688 249.046875 C 219.023438 250.019531 216.484375 253.273438 217.476562 256.296875 C 218.128906 258.292969 220.03125 259.5625 221.8125 260.679688 C 225.476562 262.980469 229.144531 265.277344 232.808594 267.578125 C 226.667969 267.179688 220.898438 270.269531 215.582031 273.371094 C 212.664062 275.074219 209.539062 277.085938 208.535156 280.3125 C 207.535156 283.535156 210.351562 287.851562 213.570312 286.828125 C 212.277344 290.683594 210.011719 295.980469 213.3125 298.839844 C 217.6875 304.191406 223.246094 299.738281 228.070312 298.601562 C 226.078125 300.597656 226.800781 304.199219 228.824219 306.167969 C 229 306.335938 229.1875 306.484375 229.371094 306.636719 C 224.703125 305.886719 220.082031 306.539062 217.453125 309.109375 C 216.605469 309.9375 215.628906 310.613281 214.523438 310.828125 C 210.316406 311.652344 210.015625 308.945312 208.945312 306.914062 C 205.425781 300.234375 196.394531 303.246094 190.378906 307.039062 C 189.1875 304.089844 187.992188 301.136719 186.800781 298.183594 C 183.339844 290.71875 171.113281 303 163.015625 303.066406 C 160.921875 303.085938 158.71875 303.019531 156.859375 304.117188 C 153.949219 305.828125 152.261719 310.152344 148.992188 310.464844 C 147.441406 310.613281 145.972656 309.769531 144.527344 309.121094 C 134.453125 304.605469 117.121094 321.4375 117.121094 321.4375 C 117.121094 321.4375 96.992188 315.398438 88.917969 321.4375 C 84.316406 324.878906 84.09375 333.65625 88.511719 337.386719 C 78.109375 339.78125 67.695312 342.179688 57.457031 345.34375 C 54.199219 346.347656 42.738281 346.355469 39.105469 352.527344 C 37.253906 355.679688 42.253906 363.90625 50.351562 360.25 C 54.878906 358.742188 59.667969 360.804688 64.027344 362.828125 C 66.925781 364.175781 69.820312 365.523438 72.71875 366.871094 C 75.285156 368.0625 80.109375 373.351562 80.445312 376.710938 C 80.628906 378.582031 81.933594 380.089844 83.546875 380.570312 C 90.925781 382.769531 99.183594 374.71875 101.117188 365.234375 C 111.328125 370.632812 124.230469 368.8125 132.953125 360.746094 C 138.816406 363.035156 145.65625 365.226562 150.898438 361.476562 C 152.40625 360.398438 153.652344 358.890625 155.203125 357.882812 C 157.070312 356.671875 159.273438 356.261719 161.183594 355.132812 C 161.3125 355.058594 161.429688 354.964844 161.550781 354.878906 C 164.671875 356.789062 168.046875 357.386719 171.734375 356.746094 C 177.035156 355.828125 181.992188 353.09375 187.214844 351.761719 C 191.320312 353.328125 195.527344 354.566406 199.796875 355.425781 C 202.082031 355.890625 204.484375 356.238281 206.6875 355.40625 C 208.207031 354.835938 209.535156 353.726562 211.058594 353.164062 C 212.773438 352.523438 214.628906 352.613281 216.433594 352.710938 C 222.988281 353.058594 229.542969 353.40625 236.097656 353.753906 C 244.082031 354.179688 253.648438 353.652344 258.027344 346.363281 C 271.117188 347.292969 284.171875 347.214844 297.476562 346.886719 C 307.589844 346.632812 317.742188 346.601562 327.804688 347.816406 C 336.929688 348.898438 351.191406 349.488281 360.257812 350.976562 C 380.042969 354.21875 394.726562 357.621094 414.664062 359.59375 C 424.4375 360.558594 430.589844 364.234375 440.390625 364.863281 C 450.238281 365.5 463.742188 362.953125 473.5625 363.96875 C 478.589844 364.488281 483.402344 365.527344 488.074219 367.03125 C 492.34375 381.324219 499.433594 394.738281 508.226562 406.75 C 511.472656 411.179688 514.949219 415.417969 518.597656 419.503906 C 508.878906 422.589844 498.941406 424.367188 488.753906 424.441406 C 489.410156 424.039062 490.066406 423.640625 490.722656 423.242188 C 494.152344 421.15625 498.453125 421.636719 501.921875 419.515625 C 504.46875 418.1875 504.246094 414.136719 502.183594 412.136719 C 500.121094 410.132812 497.0625 409.652344 494.207031 409.332031 C 485.222656 408.320312 476.1875 407.90625 467.15625 407.492188 C 470.4375 404.128906 469.226562 397.609375 464.953125 395.648438 C 457.453125 392.210938 441.234375 399.371094 441.234375 399.371094 C 441.234375 399.371094 424.691406 389.097656 416.746094 393.796875 C 415.609375 394.472656 414.472656 395.296875 413.152344 395.386719 C 410.363281 395.585938 408.441406 392.585938 405.792969 391.6875 C 404.101562 391.117188 402.257812 391.453125 400.492188 391.71875 C 393.675781 392.738281 381.960938 385.1875 379.921875 391.214844 C 379.261719 393.570312 378.605469 395.929688 377.945312 398.289062 C 372.445312 396.253906 364.496094 395.195312 362.316406 400.644531 C 361.65625 402.300781 361.71875 404.355469 358.085938 404.296875 C 357.128906 404.28125 356.230469 403.910156 355.421875 403.402344 C 348.855469 399.292969 332.328125 406.75 334.140625 414.410156 C 334.554688 418.574219 330.925781 421.863281 328.007812 424.863281 C 326.023438 426.902344 324.222656 429.773438 324.078125 432.441406 C 320.046875 432.304688 313.554688 432.546875 310.566406 435.191406 C 302.121094 442.652344 314.441406 446.40625 314.441406 446.40625 C 314.441406 446.40625 313.546875 449.140625 310.308594 449.605469 C 307.070312 450.070312 303.546875 449.8125 300.789062 451.574219 C 299.351562 452.484375 299.644531 455.066406 300.503906 456.046875 C 303.796875 459.035156 309.257812 459.371094 313.5 458.039062 C 317.742188 456.703125 322.15625 454.222656 326.601562 454.265625 C 333.945312 454.335938 340.640625 458.863281 347.757812 457.054688 C 351.402344 456.128906 354.203125 453.324219 357.320312 451.222656 C 360.433594 449.121094 364.691406 447.710938 367.84375 449.757812 C 368.972656 450.488281 369.949219 451.648438 371.292969 451.738281 C 373.542969 451.882812 377.03125 448.445312 377.03125 448.445312 C 377.03125 448.445312 382.285156 451.699219 385.300781 452.890625 C 390.148438 454.800781 399.503906 447.695312 399.503906 447.695312 C 399.503906 447.695312 407.671875 448.882812 411.761719 448.410156 C 415.539062 447.976562 418.714844 445.3125 420.703125 442.019531 C 426.582031 443.628906 432.605469 444.648438 438.730469 444.136719 C 448.046875 443.359375 457.757812 441.453125 466.609375 437.84375 C 469.734375 439.726562 473.316406 440.394531 476.382812 439.046875 C 477.683594 438.472656 478.601562 437.175781 478.539062 435.757812 C 478.488281 434.546875 479.238281 432.882812 480.253906 431.332031 C 487.152344 432.042969 494.074219 432.359375 501.058594 431.6875 C 509.335938 430.839844 517.347656 428.996094 525.183594 426.535156 C 532.714844 434.203125 540.820312 441.328125 549.132812 448.117188 C 564.613281 460.757812 580.433594 472.863281 595.515625 486.003906 C 625.125 511.800781 659.421875 529.40625 690.40625 555.050781 C 704.585938 566.78125 721.96875 575.992188 735.703125 588.503906 C 744.902344 596.886719 752.320312 607 760.179688 616.664062 C 764.207031 626.605469 768.070312 636.609375 772.777344 646.253906 C 777.96875 656.898438 783.605469 668.574219 792.980469 675.785156 C 806.867188 686.46875 809.503906 704.496094 816 719.867188 C 822.609375 735.515625 827.429688 751.929688 831.507812 768.394531 C 836.167969 787.214844 840.125 806.582031 842.019531 826.046875 C 841.863281 827.472656 841.695312 828.898438 841.558594 830.328125 C 839.671875 850.085938 840.492188 870.203125 840.722656 890.023438 C 840.953125 909.695312 841.320312 929.371094 841.167969 949.046875 C 841.015625 968.550781 840.039062 988.003906 839.027344 1007.476562 C 838.085938 1025.574219 837.089844 1043.796875 833.886719 1061.65625 C 830.859375 1078.535156 818.707031 1101.246094 818.339844 1111.226562 C 836.308594 1110.691406 870.609375 1111.027344 888.578125 1110.488281 C 888.300781 1101.207031 883.347656 1091.519531 884.882812 1082.390625 C 886.878906 1070.382812 887.070312 1059.128906 887.914062 1046.976562 C 889.265625 1027.429688 889.339844 1007.816406 889.660156 988.234375 C 890.027344 968.660156 889.542969 949.078125 888.746094 929.519531 C 887.136719 889.863281 882.835938 849.804688 887.722656 810.257812 C 890.066406 791.277344 893.488281 772.441406 895.5625 753.429688 C 895.679688 753.457031 895.800781 753.488281 895.917969 753.515625 C 896.601562 750.558594 897.261719 747.589844 898.003906 744.644531 C 906.601562 710.527344 923.792969 682.175781 922.261719 646.9375 C 921.191406 622.359375 932.027344 603.683594 932.664062 583.773438 C 932.980469 573.828125 933.277344 563.886719 933.882812 553.953125 C 934.125 550.011719 934.421875 546.070312 934.691406 542.128906 C 937.226562 534.375 942.921875 524.699219 946.835938 517.652344 C 957.519531 498.421875 975.195312 496.644531 990.160156 485.980469 C 1005.699219 474.910156 1017.488281 472.265625 1030.171875 457.820312 C 1038.371094 448.484375 1049.859375 429.972656 1056.28125 419.378906 C 1060.558594 417.46875 1064.371094 414.832031 1067.980469 411.535156 C 1073.570312 406.429688 1078.429688 400.488281 1084.699219 396.148438 C 1087.800781 393.996094 1091.21875 392.519531 1094.730469 391.226562 C 1094.910156 391.179688 1095.078125 391.121094 1095.238281 391.039062 C 1098.191406 389.96875 1101.191406 389 1104.101562 387.871094 C 1105.589844 388.179688 1107.070312 388.765625 1108.378906 389.484375 C 1111.671875 391.289062 1114.71875 393.824219 1118.429688 394.410156 C 1125.691406 395.554688 1131.980469 388.945312 1139.289062 388.199219 C 1143.710938 387.75 1148.019531 389.488281 1152.371094 390.425781 C 1156.710938 391.363281 1161.851562 391.257812 1164.859375 387.980469 C 1164.800781 386.859375 1164.75 385.738281 1164.699219 384.621094 C 1161.789062 383.121094 1158.308594 383.703125 1155.039062 383.539062 C 1151.769531 383.375 1147.511719 378.539062 1147.511719 378.539062 C 1147.511719 378.539062 1151.890625 369.40625 1148.570312 366.933594 C 1145.761719 364.847656 1138.710938 368.859375 1138.710938 368.859375 C 1138.710938 368.859375 1134.800781 366.890625 1133.03125 365.523438 C 1132.730469 365.300781 1132.421875 365.101562 1132.121094 364.898438 C 1138.238281 362.734375 1144.378906 360.621094 1150.589844 358.777344 C 1159.808594 356.042969 1169.148438 353.796875 1178.519531 351.617188 C 1178.511719 351.621094 1178.511719 351.628906 1178.511719 351.632812 C 1186.289062 353.886719 1194.199219 355.21875 1202.261719 355.949219 C 1211.53125 356.789062 1221.460938 358.03125 1230.75 357.308594 C 1239.800781 356.605469 1246.660156 352.5625 1252.871094 346.441406 C 1263.421875 343.828125 1273.488281 339.253906 1282.371094 332.984375 C 1279.21875 337.589844 1281.011719 344.773438 1285.949219 347.367188 C 1287.859375 348.367188 1290.058594 348.730469 1291.929688 349.808594 C 1293.480469 350.699219 1294.71875 352.035156 1296.230469 352.996094 C 1301.46875 356.316406 1308.308594 354.378906 1314.179688 352.34375 C 1322.898438 359.5 1335.800781 361.113281 1346.011719 356.324219 C 1347.949219 364.738281 1356.199219 371.878906 1363.578125 369.925781 C 1365.199219 369.5 1366.5 368.164062 1366.691406 366.503906 C 1367.019531 363.523438 1371.851562 358.835938 1374.410156 357.777344 C 1377.308594 356.582031 1380.210938 355.386719 1383.101562 354.195312 C 1387.460938 352.394531 1392.371094 353.738281 1396.78125 351.90625 C 1399.980469 350.828125 1400.449219 346.085938 1398.421875 343.386719 C 1396.390625 340.691406 1392.929688 339.578125 1389.671875 338.683594 C 1379.429688 335.878906 1369.019531 333.75 1358.621094 331.628906 C 1363.039062 328.316406 1362.820312 320.53125 1358.210938 317.480469 C 1350.140625 312.125 1330.011719 317.484375 1330.011719 317.484375 C 1330.011719 317.484375 1312.679688 302.554688 1302.601562 306.5625 C 1301.160156 307.136719 1299.691406 307.882812 1298.140625 307.753906 C 1297.398438 307.6875 1296.75 307.441406 1296.140625 307.085938 C 1303.070312 304.269531 1310.140625 301.753906 1317.421875 299.6875 C 1323.121094 298.066406 1328.878906 296.675781 1334.660156 295.445312 C 1334.699219 295.527344 1334.75 295.582031 1334.789062 295.582031 C 1338.121094 295.550781 1341.238281 296.164062 1344.398438 297.207031 C 1353.179688 300.097656 1361.28125 305.183594 1370.558594 306.480469 C 1380.648438 307.890625 1390.960938 306.5625 1400.960938 303.960938 C 1404.28125 307.089844 1409 308.480469 1413.488281 309.621094 C 1420.078125 311.300781 1426.871094 312.835938 1433.621094 312.007812 C 1440.371094 311.179688 1447.160156 307.546875 1449.988281 301.367188 C 1459.890625 317.421875 1484.609375 317.457031 1496.601562 332.019531 C 1500.058594 336.234375 1504.839844 342.214844 1509.5 339.378906 C 1509.671875 335.105469 1512.371094 331.023438 1516.238281 329.195312 C 1524 325.972656 1511.78125 311.214844 1503.699219 309.007812 C 1506.101562 308.355469 1508.5 307.703125 1510.898438 307.054688 C 1512.851562 303.03125 1508.28125 298.808594 1503.980469 297.601562 C 1499.679688 296.390625 1494.589844 296.121094 1491.839844 292.605469 C 1491.691406 292.421875 1491.558594 292.226562 1491.429688 292.027344 C 1496.839844 291.503906 1502.28125 291.046875 1507.589844 290.109375 C 1508.640625 294.070312 1512.621094 297.839844 1516.570312 299.890625 C 1522.328125 302.886719 1529.5 305.839844 1530.679688 312.230469 C 1532.25 313.550781 1534.730469 312.371094 1535.960938 310.730469 C 1537.191406 309.09375 1537.878906 307.011719 1539.46875 305.71875 C 1541.410156 304.144531 1544.171875 304.148438 1546.449219 303.125 C 1548.730469 302.105469 1553.730469 293.738281 1551.71875 292.257812 Z M 439.40625 441.023438 C 433.429688 442.097656 427.484375 441.527344 421.589844 440.351562 C 422.472656 438.425781 423.019531 436.386719 423.402344 434.300781 C 426.527344 433.8125 429.675781 432.285156 432.519531 430.773438 C 435.945312 432.789062 439.851562 433.894531 443.8125 434.136719 C 445.519531 435.605469 447.417969 437.28125 448.445312 439.171875 C 445.425781 439.902344 442.394531 440.507812 439.40625 441.023438 Z M 449.515625 433.882812 C 453.1875 433.320312 456.734375 432.003906 459.816406 429.921875 C 460.484375 431.597656 461.46875 433.152344 462.65625 434.511719 C 459.695312 435.800781 456.632812 436.886719 453.523438 437.808594 C 452.496094 436.242188 451.101562 434.980469 449.515625 433.882812 Z M 1121.058594 349.4375 C 1119.609375 350.585938 1118.140625 351.710938 1116.628906 352.785156 C 1116.480469 352.835938 1116.328125 352.886719 1116.179688 352.933594 C 1114.300781 351.214844 1112.769531 349.238281 1112.640625 346.695312 C 1113.191406 339.039062 1097.019531 334.355469 1091.601562 339.304688 C 1090.929688 339.914062 1090.171875 340.410156 1089.289062 340.570312 C 1085.980469 341.175781 1085.738281 339.183594 1084.898438 337.6875 C 1082.128906 332.769531 1075.011719 334.988281 1070.269531 337.78125 C 1069.328125 335.609375 1068.390625 333.433594 1067.449219 331.261719 C 1064.730469 325.765625 1055.101562 334.808594 1048.71875 334.855469 C 1047.070312 334.867188 1045.328125 334.820312 1043.871094 335.628906 C 1041.578125 336.890625 1040.25 340.070312 1037.671875 340.300781 C 1036.449219 340.410156 1035.289062 339.789062 1034.148438 339.3125 C 1033.609375 339.085938 1033.039062 338.9375 1032.449219 338.847656 C 1034.148438 331.714844 1035.480469 324.472656 1037.039062 317.328125 C 1039.03125 308.160156 1041.609375 299.066406 1046.03125 290.742188 C 1049.460938 284.269531 1054.011719 278.488281 1059.160156 273.292969 C 1060.328125 272.765625 1064.660156 271.238281 1065.171875 271.105469 C 1072.820312 269.125 1081.019531 269.257812 1087.988281 265.078125 C 1090.648438 263.492188 1093.269531 261.777344 1095.871094 259.988281 C 1100.320312 259.460938 1104.75 258.769531 1109.179688 257.898438 C 1116.109375 256.539062 1122.980469 254.867188 1129.769531 252.945312 C 1131.160156 259.300781 1130.671875 265.992188 1132.980469 272.304688 C 1136.191406 281.058594 1142.121094 288.515625 1146.859375 296.441406 C 1150.449219 302.464844 1151.691406 309.300781 1153.578125 315.941406 C 1143.191406 327.488281 1133.359375 340.058594 1121.058594 349.4375 Z M 1014.828125 382.34375 C 1018.550781 381.542969 1022.089844 379.851562 1025.03125 377.3125 C 1026.621094 377.890625 1028.300781 378.457031 1029.988281 378.84375 C 1027.238281 383.503906 1023.511719 387.246094 1018.730469 390.007812 C 1013.988281 392.769531 1009.558594 395.96875 1005.210938 399.273438 C 1008.640625 393.765625 1011.820312 388.101562 1014.828125 382.34375 Z M 945.613281 308.75 C 945.097656 299.320312 944.710938 289.679688 946.742188 280.386719 C 948.414062 272.738281 951.929688 265.746094 956.738281 259.636719 C 957.878906 259.390625 958.988281 259.210938 959.917969 259.035156 C 967.859375 257.539062 975.964844 257.105469 983.941406 255.839844 C 983.210938 265.285156 989.90625 271.519531 994.566406 279.046875 C 992.503906 281.035156 990.578125 283.164062 988.871094 285.492188 C 983.355469 293.003906 980.347656 301.839844 977.96875 310.757812 C 975.625 319.554688 973.015625 327.410156 966.601562 334.136719 C 960.644531 340.382812 953.105469 344.867188 945.785156 349.378906 C 946.4375 345.527344 946.8125 341.625 946.828125 337.6875 C 946.859375 328.027344 946.144531 318.390625 945.613281 308.75 Z M 929.179688 326.171875 C 929.101562 335.300781 928.691406 344.171875 925.59375 352.851562 C 922.40625 361.785156 917.464844 369.976562 912.398438 377.945312 C 910.109375 381.539062 907.769531 385.128906 905.464844 388.746094 C 903.199219 380.246094 901.433594 371.605469 899.105469 363.105469 C 896.996094 355.394531 894.308594 348.144531 890.5625 341.609375 C 890.648438 337.628906 889.726562 333.691406 888.371094 329.90625 C 886.488281 324.632812 882.234375 317.925781 883.855469 312.144531 C 885.453125 306.441406 889.425781 301.632812 891.097656 295.914062 C 898.128906 295.789062 905.347656 294.355469 908.6875 288.511719 C 911.078125 284.214844 907.265625 279.101562 903.335938 276.152344 C 902.785156 275.738281 902.21875 275.320312 901.648438 274.898438 C 909.457031 268.65625 917.347656 262.511719 924.65625 255.695312 C 929.234375 259.070312 933.851562 263.398438 935.070312 268.695312 C 932.945312 291.140625 929.347656 307.003906 929.179688 326.171875 Z M 668.945312 428.675781 C 665.789062 426.3125 662.839844 423.585938 660.148438 420.421875 C 655.851562 415.367188 652.160156 409.957031 648.851562 404.328125 C 655.90625 406.773438 662.761719 409.765625 669.550781 412.90625 C 669.324219 414.480469 669.117188 416.082031 669.007812 417.726562 C 668.777344 421.359375 668.773438 425.015625 668.945312 428.675781 Z M 465.242188 314.921875 C 461.570312 313.230469 457.660156 311.96875 453.550781 310.996094 C 442.226562 308.324219 430.078125 308.535156 419.195312 304.199219 C 408.574219 299.960938 399.441406 292.921875 388.585938 289.125 C 388.136719 288.96875 387.679688 288.820312 387.226562 288.667969 C 388.617188 288.503906 389.992188 289.121094 391.285156 289.703125 C 404.273438 295.546875 416.804688 300.320312 430.945312 298.605469 C 437.367188 296.699219 436.332031 289.671875 432.632812 286.421875 C 427.65625 282.808594 419.429688 287.015625 412.859375 286.371094 C 412.488281 283.371094 410.019531 280.753906 407.046875 280.207031 C 407.730469 278.355469 408.644531 276.597656 409.738281 274.960938 C 425.542969 280.273438 440.296875 289.117188 452.4375 300.5625 C 453.25 301.492188 454.140625 302.359375 455.09375 303.15625 C 458.757812 306.84375 462.160156 310.773438 465.242188 314.921875 Z M 1050.699219 243.128906 C 1050.609375 242.570312 1050.511719 242.015625 1050.398438 241.460938 C 1056.300781 239.148438 1061.871094 235.222656 1067.011719 231.402344 C 1071.371094 241.046875 1083.5 246.375 1093.550781 243.054688 C 1096.269531 242.15625 1098.808594 240.722656 1101.621094 240.175781 C 1102.671875 239.96875 1103.699219 239.902344 1104.71875 239.929688 C 1093.371094 244.441406 1082.160156 249.695312 1072.019531 256.25 C 1064.238281 256.164062 1056.46875 256.125 1048.738281 256.882812 C 1050.480469 252.515625 1051.488281 248.222656 1050.699219 243.128906 Z M 883.617188 329.230469 C 884.003906 330.496094 884.367188 331.789062 884.671875 333.089844 C 881.378906 329.144531 877.480469 325.589844 872.808594 322.523438 C 869.898438 320.613281 866.871094 318.96875 863.761719 317.496094 C 864.230469 316.308594 864.730469 315.136719 865.277344 313.980469 C 868.535156 307.113281 873.238281 300.996094 878.453125 295.460938 C 881.054688 295.582031 883.65625 295.703125 886.253906 295.828125 C 887.238281 295.871094 888.246094 295.90625 889.265625 295.917969 C 887.257812 301.023438 883.671875 305.390625 881.375 310.367188 C 878.59375 316.363281 881.84375 323.414062 883.617188 329.230469 Z M 756.691406 317.355469 C 757.472656 323.574219 758.964844 329.304688 761.019531 334.957031 C 759.769531 333.878906 758.519531 332.796875 757.265625 331.722656 C 752.242188 327.429688 747.28125 322.878906 743.148438 317.691406 C 746.519531 315.496094 749.335938 311.898438 750.734375 307.84375 C 752.054688 307.863281 753.34375 307.660156 754.617188 307.300781 C 754.949219 307.40625 755.28125 307.511719 755.617188 307.605469 C 755.878906 310.945312 756.300781 314.238281 756.691406 317.355469 Z M 433.195312 269.996094 C 434.617188 272.851562 435.792969 275.808594 436.957031 278.773438 C 429.96875 274.996094 422.617188 271.847656 414.976562 269.191406 C 417.621094 267.019531 420.675781 265.351562 423.953125 264.371094 C 426.234375 264.605469 428.503906 264.984375 430.742188 265.476562 C 431.609375 266.957031 432.445312 268.453125 433.195312 269.996094 Z M 477.46875 233.765625 C 484.789062 236.679688 491.882812 240.050781 498.535156 244.316406 C 495.933594 244.277344 493.375 244.546875 490.824219 245.21875 C 487.097656 246.199219 484.671875 247.441406 480.8125 246.230469 C 477.304688 245.128906 474.644531 243.121094 471.484375 241.359375 C 468.785156 239.859375 465.886719 239.316406 462.875 239.113281 C 467.566406 236.894531 472.457031 235.113281 477.46875 233.765625 Z M 496.632812 235.699219 C 493.761719 234.210938 490.824219 232.871094 487.839844 231.636719 C 493.742188 230.796875 499.730469 230.542969 505.679688 230.941406 C 509.148438 231.175781 512.605469 231.609375 516.070312 231.910156 C 515.945312 234.175781 515.890625 236.445312 516.035156 238.71875 C 516.503906 243.988281 518.417969 248.425781 520.667969 252.765625 C 520.300781 252.441406 519.9375 252.113281 519.566406 251.789062 C 512.523438 245.636719 504.964844 240 496.632812 235.699219 Z M 909.75 202.84375 C 911.585938 204.210938 913.484375 205.472656 915.421875 206.679688 C 911.519531 208.226562 907.695312 210.21875 907.695312 210.21875 C 907.695312 210.21875 894.167969 206.285156 890.660156 211.132812 C 889.542969 212.683594 888.453125 216.398438 888.453125 216.398438 C 888.453125 216.398438 878.261719 220 872.6875 218.675781 C 867.113281 217.347656 858.964844 218.710938 859.007812 224.4375 C 858.972656 230.28125 880.316406 232.644531 899.75 232.796875 C 899.328125 238.605469 899.957031 244.644531 897.898438 250.199219 C 896.601562 253.773438 894.585938 256.972656 892.464844 260.105469 C 887.367188 254.144531 873.191406 251.476562 867.660156 256.195312 C 861.808594 248.328125 854.652344 241.527344 846.011719 236.160156 C 837.921875 231.136719 830.339844 224.554688 824.335938 217.160156 C 823.289062 215.871094 822.226562 214.464844 821.230469 212.972656 C 822.875 212.238281 824.519531 211.503906 826.1875 210.894531 C 843.761719 204.5 862.898438 212.632812 880.828125 208.03125 C 887.039062 206.433594 892.828125 203.382812 898.335938 199.527344 C 900.128906 199.078125 901.875 198.335938 903.59375 197.378906 C 905.460938 199.394531 907.5625 201.199219 909.75 202.84375 Z M 813.175781 250.871094 C 811.078125 250.886719 808.878906 250.832031 807.019531 251.800781 C 804.105469 253.320312 802.421875 257.15625 799.148438 257.433594 C 797.601562 257.566406 796.132812 256.816406 794.6875 256.242188 C 790.332031 254.511719 784.621094 256.320312 779.539062 258.929688 C 775.585938 249.371094 772.0625 239.675781 767.6875 230.328125 C 779.070312 232.753906 790.855469 233.296875 802.402344 231.863281 C 805.953125 231.421875 810.617188 228.65625 808.820312 225.5625 C 808.195312 224.484375 806.945312 223.957031 805.765625 223.554688 C 802.480469 222.441406 799.054688 221.761719 795.59375 221.535156 C 797.695312 219.589844 799.832031 217.570312 801.46875 215.246094 C 804.863281 216.300781 808.3125 216.785156 811.8125 216.238281 C 814.574219 215.804688 817.21875 214.742188 819.851562 213.585938 C 820.828125 215.230469 821.898438 216.792969 822.953125 218.226562 C 828.570312 225.828125 835.699219 232.507812 843.320312 238.066406 C 851.359375 243.757812 857.980469 250.320312 863.339844 257.886719 C 860.394531 257.921875 860.046875 255.871094 859.105469 254.285156 C 855.585938 248.359375 846.554688 251.03125 840.539062 254.394531 C 839.34375 251.777344 838.152344 249.160156 836.960938 246.542969 C 833.496094 239.921875 821.273438 250.8125 813.175781 250.871094 Z M 725.429688 271.140625 C 723.074219 271.335938 719.664062 271.667969 716.628906 271.972656 C 709.003906 263.617188 699.757812 256.726562 690.355469 250.386719 C 685.011719 246.777344 679.703125 243.230469 674.523438 239.535156 C 685.691406 237.785156 696.859375 236.035156 708.027344 234.285156 C 710.746094 233.859375 713.617188 233.445312 716.191406 234.433594 C 719.894531 235.859375 722.710938 240.054688 726.648438 239.585938 C 727.832031 239.445312 728.90625 238.871094 729.945312 238.273438 C 730.34375 239.578125 730.828125 240.859375 731.460938 242.101562 C 733.121094 245.378906 735.285156 249.75 739.328125 250.289062 C 743.535156 250.847656 747.300781 251.523438 750.925781 253.890625 C 756.296875 257.398438 761.21875 261.910156 765.589844 266.753906 C 760.582031 265.613281 745.734375 262.746094 739.074219 267.164062 C 737.566406 268.164062 736.539062 269.675781 735.980469 271.371094 C 732.472656 270.984375 728.953125 270.847656 725.429688 271.140625 Z M 693.203125 270.476562 C 685.851562 270.734375 679.289062 274.921875 673.148438 278.96875 C 672.953125 279.097656 672.734375 279.339844 672.511719 279.648438 C 671.800781 279.121094 671.03125 278.652344 670.277344 278.234375 C 663.3125 274.390625 655.863281 271.433594 648.164062 269.429688 C 651.390625 263.222656 655.472656 256.847656 656.679688 249.910156 C 656.921875 249.84375 657.164062 249.777344 657.40625 249.710938 C 662.089844 248.429688 667.910156 245.484375 667.046875 240.707031 C 668.375 240.496094 669.703125 240.289062 671.027344 240.082031 C 684.601562 250.632812 699.121094 260.042969 711.027344 272.550781 C 710.261719 272.628906 709.789062 272.679688 709.789062 272.679688 C 709.789062 272.679688 698.789062 270.28125 693.203125 270.476562 Z M 526.988281 254.710938 C 523.589844 249.65625 520.199219 244.742188 519.050781 238.394531 C 518.730469 236.304688 518.582031 234.199219 518.5 232.089844 C 520.492188 232.214844 522.488281 232.269531 524.484375 232.179688 C 528.671875 231.984375 532.804688 231.167969 536.898438 230.285156 C 540.347656 229.542969 543.785156 228.746094 547.210938 227.90625 C 545.867188 230.222656 544.558594 232.558594 543.347656 234.953125 C 540.9375 239.734375 539.390625 244.523438 538.613281 249.441406 C 537.144531 249.574219 535.691406 249.828125 534.265625 250.292969 C 531.484375 251.199219 529.097656 252.761719 526.988281 254.710938 Z M 597.878906 220.589844 C 602.21875 220.960938 607.539062 217.945312 606.796875 213.652344 C 610.160156 213.785156 613.523438 213.921875 616.890625 214.054688 C 617.023438 216.640625 617.050781 219.234375 617.03125 221.808594 C 607.710938 223.8125 598.3125 225.046875 594.175781 228.195312 C 594.125 228.171875 594.074219 228.152344 594.019531 228.132812 C 588.546875 225.90625 583.988281 222.46875 579.71875 218.628906 C 581.5 218.15625 583.304688 217.808594 585.140625 217.851562 C 589.496094 217.949219 593.539062 220.21875 597.878906 220.589844 Z M 624.246094 220.019531 C 624.160156 218.238281 624.042969 216.398438 623.875 214.535156 C 626.1875 215.539062 628.484375 216.566406 630.707031 217.679688 C 628.710938 218.589844 626.527344 219.355469 624.246094 220.019531 Z M 542.808594 249.378906 C 543.1875 244.9375 544.257812 240.554688 546.046875 236.105469 C 547.257812 233.097656 548.59375 230.144531 549.96875 227.210938 C 550.941406 226.960938 551.914062 226.710938 552.886719 226.453125 C 555.175781 229.78125 558.117188 232.585938 561.046875 235.34375 C 564.8125 238.894531 568.484375 242.507812 570.621094 246.859375 C 567.136719 247.761719 563.746094 249.355469 560.179688 250.003906 C 554.496094 251.039062 548.570312 249.644531 542.808594 249.378906 Z M 575.4375 246.203125 C 575.367188 246.203125 575.300781 246.207031 575.230469 246.207031 C 573.027344 242.035156 569.617188 238.527344 565.605469 235.339844 C 561.871094 232.371094 557.867188 229.492188 554.769531 225.953125 C 555.421875 225.777344 556.074219 225.605469 556.726562 225.429688 C 563.523438 223.558594 570.265625 221.488281 577.003906 219.421875 C 577.324219 219.324219 577.644531 219.226562 577.964844 219.128906 C 578.066406 219.242188 578.164062 219.355469 578.269531 219.46875 C 582.207031 223.8125 586.554688 227.574219 591.734375 230.359375 C 591.90625 230.449219 592.078125 230.535156 592.246094 230.621094 C 592.164062 230.855469 592.09375 231.089844 592.050781 231.339844 C 592.847656 237.652344 599.34375 242.660156 605.652344 241.820312 C 605.363281 244.277344 606.28125 246.84375 608.058594 248.558594 C 610.800781 249.234375 613.601562 249.675781 616.414062 249.902344 C 616.394531 252.003906 616.40625 254.101562 616.449219 256.199219 C 614.722656 255.554688 612.8125 255.246094 610.988281 255.203125 C 606.820312 255.101562 602.613281 255.984375 598.503906 255.273438 C 590.289062 253.851562 583.773438 246.328125 575.4375 246.203125 Z M 626.375 265.714844 C 626.113281 264.136719 625.914062 262.550781 625.742188 261 C 625.335938 257.316406 625.101562 253.613281 624.953125 249.90625 C 626.066406 249.816406 627.175781 249.703125 628.28125 249.542969 C 628.117188 252.21875 630.589844 254.472656 633.214844 255.023438 C 635.835938 255.578125 638.539062 254.867188 641.125 254.160156 C 645.527344 252.957031 649.929688 251.753906 654.332031 250.550781 C 652.644531 256.519531 648.796875 261.917969 645.6875 267.1875 C 645.40625 267.664062 645.121094 268.148438 644.839844 268.636719 C 639.835938 267.519531 634.742188 266.800781 629.621094 266.511719 C 628.699219 266.457031 627.484375 266.105469 626.375 265.714844 Z M 770.148438 264.894531 C 768.714844 263.492188 767.242188 262.132812 765.761719 260.816406 C 760.652344 256.269531 754.613281 250.90625 747.914062 248.953125 C 746.175781 248.433594 744.378906 248.078125 742.570312 247.90625 C 741.191406 247.777344 739.5625 248.035156 738.257812 247.472656 C 735.585938 246.328125 733.324219 241.890625 732.171875 239.378906 C 731.871094 238.746094 731.613281 238.101562 731.375 237.449219 C 738.175781 233.496094 744.976562 229.546875 751.777344 225.597656 C 756.148438 227.289062 760.636719 228.675781 765.195312 229.761719 C 765.847656 231.269531 766.480469 232.789062 767.078125 234.316406 C 770.148438 242.160156 772.625 250.222656 775.394531 258.171875 C 775.691406 259.027344 775.992188 259.882812 776.296875 260.738281 C 773.875 262.195312 771.734375 263.703125 770.148438 264.894531 Z M 697.527344 201.824219 C 696.4375 200.792969 695.246094 199.761719 693.984375 198.792969 C 693.996094 198.785156 694.007812 198.785156 694.019531 198.777344 C 694.878906 198.394531 696.121094 196.96875 697.234375 195.261719 C 700.605469 195.015625 704.019531 194.402344 707.324219 193.894531 C 709.148438 193.613281 710.976562 193.386719 712.808594 193.191406 C 707.457031 195.582031 702.332031 198.472656 697.527344 201.824219 Z M 600.816406 282.515625 C 607.949219 284.378906 615.441406 284.050781 622.949219 283.410156 C 625.207031 286.519531 627.488281 289.617188 629.652344 292.792969 C 632.855469 297.496094 635.28125 302.328125 637.121094 307.4375 C 634.101562 306.734375 631.09375 305.914062 628.097656 304.910156 C 612.359375 299.632812 598.464844 290.394531 584.132812 282.148438 C 586.359375 281.945312 595.734375 281.1875 600.816406 282.515625 Z M 634.902344 282.40625 C 635.964844 282.34375 637.023438 282.300781 638.078125 282.269531 C 637.734375 283.210938 637.410156 284.152344 637.132812 285.097656 C 636.425781 284.199219 635.671875 283.304688 634.902344 282.40625 Z M 642.289062 282.269531 C 647.605469 282.4375 652.769531 283.3125 657.640625 285.632812 C 660.988281 287.226562 664.164062 289.492188 667.851562 289.851562 C 668.9375 289.960938 670.082031 289.789062 671.144531 289.414062 C 671.792969 292.386719 672.652344 295.300781 674.164062 297.921875 C 676.371094 301.753906 680.261719 304.914062 684.683594 305.015625 C 687.691406 305.082031 692.78125 304.066406 695.304688 303.515625 C 697.117188 306.050781 698.882812 308.621094 700.527344 311.269531 C 701.949219 313.554688 703.34375 315.9375 704.484375 318.425781 C 698.515625 316.007812 692.074219 314.441406 685.273438 313.488281 C 673.566406 311.851562 661.875 311.34375 650.308594 309.796875 C 648.089844 302.515625 644.746094 295.941406 640.507812 289.738281 C 640.769531 287.234375 641.425781 284.726562 642.289062 282.269531 Z M 811.339844 297.050781 C 816.28125 294.457031 818.066406 287.269531 814.921875 282.664062 C 821.804688 287.523438 829.40625 291.363281 837.386719 294.066406 C 837.730469 295.777344 838.121094 297.480469 838.589844 299.164062 C 839.613281 302.847656 841.003906 306.363281 842.671875 309.742188 C 834.847656 307.335938 826.957031 305.078125 819.449219 302.027344 C 816.25 300.730469 813.105469 299.269531 810.074219 297.617188 C 810.507812 297.445312 810.929688 297.265625 811.339844 297.050781 Z M 840.355469 295.015625 C 843.507812 295.960938 846.714844 296.730469 849.953125 297.308594 C 852.242188 297.71875 854.644531 298.03125 856.847656 297.292969 C 858.367188 296.785156 859.691406 295.800781 861.214844 295.300781 C 862.933594 294.734375 864.785156 294.816406 866.59375 294.898438 C 867.8125 294.957031 869.03125 295.015625 870.25 295.074219 C 867.714844 297.851562 865.316406 300.765625 863.144531 303.878906 C 860.75 307.308594 858.796875 310.921875 857.152344 314.65625 C 854.503906 313.621094 851.8125 312.675781 849.097656 311.78125 C 845.308594 306.582031 842.421875 300.972656 840.355469 295.015625 Z M 894.3125 265.136719 C 894.335938 264.859375 894.335938 264.589844 894.320312 264.320312 C 895.859375 261.714844 897.445312 259.132812 898.738281 256.433594 C 902.148438 249.304688 901.710938 242.390625 901.480469 234.726562 C 901.460938 234.074219 901.460938 233.4375 901.472656 232.804688 C 902.386719 232.804688 903.292969 232.800781 904.191406 232.792969 C 904.328125 233.203125 904.453125 233.617188 904.597656 234.023438 C 907.546875 242.453125 912.976562 247.851562 920.304688 252.683594 C 920.691406 252.941406 921.089844 253.207031 921.496094 253.480469 C 916.535156 257.707031 911.324219 261.660156 906.101562 265.53125 C 903.339844 267.578125 900.542969 269.613281 897.746094 271.667969 C 895.871094 269.824219 894.460938 267.726562 894.3125 265.136719 Z M 920.019531 248.675781 C 913.539062 244.808594 909.023438 239.964844 906.132812 232.945312 C 906.109375 232.886719 906.085938 232.828125 906.0625 232.769531 C 910.90625 232.683594 915.453125 232.460938 919.296875 232.121094 C 921.648438 231.914062 926.359375 232.019531 926.359375 232.019531 C 926.359375 232.019531 932.660156 234.328125 935.878906 235.3125 C 936.734375 235.574219 937.601562 235.773438 938.476562 235.925781 C 938.394531 236.035156 938.324219 236.148438 938.238281 236.257812 C 934.050781 241.730469 929.25 246.628906 924.125 251.1875 C 922.742188 250.308594 921.359375 249.472656 920.019531 248.675781 Z M 954.410156 235.382812 C 958.214844 234.921875 962.03125 234.5625 965.851562 234.300781 C 961.679688 237.214844 957.636719 240.289062 953.859375 243.628906 C 952.710938 241.171875 952.0625 238.480469 951.554688 235.734375 C 952.511719 235.621094 953.464844 235.5 954.410156 235.382812 Z M 987.3125 233.84375 C 988.21875 233.871094 989.125 233.90625 990.03125 233.941406 C 989.789062 235.90625 989.296875 237.839844 988.710938 239.71875 C 987.394531 243.914062 985.558594 247.984375 984.53125 252.269531 C 978.671875 252.996094 972.667969 253.101562 966.886719 253.542969 C 965.355469 253.660156 963.628906 253.75 961.828125 253.890625 C 969.238281 246.246094 978.101562 239.671875 987.3125 233.84375 Z M 991.578125 234 C 993.503906 234.089844 995.425781 234.199219 997.34375 234.335938 C 995.019531 237.871094 997.601562 243 1001.488281 244.679688 C 1002.039062 244.917969 1002.609375 245.09375 1003.191406 245.238281 C 1000.238281 247.511719 997.105469 249.421875 993.605469 250.464844 C 991.601562 251.0625 989.550781 251.503906 987.480469 251.847656 C 988.554688 245.894531 991.328125 239.855469 991.578125 234 Z M 1073.320312 261.367188 C 1075.820312 261.304688 1078.320312 261.242188 1080.820312 261.15625 C 1083.46875 261.058594 1086.101562 260.902344 1088.730469 260.695312 C 1087.011719 261.710938 1085.25 262.640625 1083.378906 263.289062 C 1080.078125 264.441406 1076.570312 264.84375 1073.109375 265.179688 C 1071.179688 265.367188 1069.28125 265.570312 1067.410156 265.835938 C 1069.328125 264.277344 1071.300781 262.789062 1073.320312 261.367188 Z M 1081.070312 256.316406 C 1090.730469 250.492188 1101.121094 245.8125 1111.589844 241.648438 C 1111.628906 241.632812 1111.671875 241.621094 1111.699219 241.605469 C 1112.699219 242.03125 1113.691406 242.527344 1114.671875 243.0625 C 1113.550781 243.96875 1112.421875 244.855469 1111.269531 245.726562 C 1106.570312 249.289062 1101.660156 252.585938 1096.679688 255.742188 C 1091.480469 256.203125 1086.269531 256.316406 1081.070312 256.316406 Z M 1115.839844 243.722656 C 1119.628906 245.914062 1123.339844 248.628906 1127.109375 250.703125 C 1119.011719 252.574219 1110.808594 254.113281 1102.558594 255.113281 C 1107.191406 251.546875 1111.621094 247.703125 1115.839844 243.722656 Z M 948.222656 192.382812 C 943.5 195.09375 938.390625 204.964844 938.390625 204.964844 C 938.390625 204.964844 926.578125 203.976562 920.652344 205.039062 C 920.523438 205.0625 920.378906 205.097656 920.242188 205.128906 C 914.941406 202.625 909.714844 199.8125 905.597656 196.167969 C 911.714844 192.195312 917.554688 186.066406 923.867188 182.375 C 931.984375 185.710938 940.101562 189.046875 948.222656 192.382812 Z M 904.023438 89.648438 C 903.578125 88.789062 903.113281 87.96875 902.636719 87.179688 C 903.335938 87.691406 904.023438 88.210938 904.71875 88.679688 C 904.480469 88.988281 904.246094 89.308594 904.023438 89.648438 Z M 450.464844 282.804688 C 449.867188 283.332031 449.152344 284.59375 448.558594 285.875 C 446.960938 284.769531 445.34375 283.695312 443.695312 282.671875 C 441.019531 277.988281 438.769531 273.0625 435.847656 268.523438 C 435.402344 267.816406 434.9375 267.121094 434.46875 266.4375 C 439.140625 267.789062 443.652344 269.6875 447.859375 272.132812 C 451.703125 274.359375 456.417969 277.078125 460.222656 274.785156 C 463.070312 273.066406 464.300781 266.050781 464.300781 266.050781 C 464.300781 266.050781 467.671875 264.804688 469.988281 262.101562 C 470.523438 262.4375 471.058594 262.78125 471.582031 263.136719 C 473.566406 264.480469 475.808594 266.128906 477.621094 268.085938 C 467.628906 270.941406 458.253906 275.914062 450.464844 282.804688 Z M 482.425781 266.890625 C 479.546875 263.640625 475.535156 261.164062 471.664062 259.269531 C 472.632812 256.554688 472.246094 252.976562 468.589844 248.429688 C 464.863281 244.402344 460.316406 243.546875 455.964844 242.785156 C 457.203125 242.050781 458.460938 241.34375 459.738281 240.675781 C 461.261719 240.765625 462.78125 240.917969 464.289062 241.179688 C 471.695312 242.460938 476.332031 249.578125 484.074219 250.3125 C 487.664062 250.65625 491.253906 248.769531 494.84375 248.511719 C 498.414062 248.253906 502.25 248.941406 505.625 250.070312 C 505.984375 250.191406 507.054688 250.800781 508.195312 251.480469 C 512.488281 255.070312 516.535156 258.933594 520.488281 262.894531 C 519.402344 264.628906 518.390625 266.402344 517.417969 268.144531 C 506.109375 264.734375 493.972656 264.421875 482.425781 266.890625 Z M 535.261719 300.347656 C 536.578125 294.855469 541.636719 290.476562 547.261719 289.957031 C 547.386719 289.945312 547.515625 289.941406 547.640625 289.933594 C 558.460938 299.253906 570.644531 306.855469 581.679688 315.929688 C 572.632812 313.894531 563.46875 312.308594 554.386719 310.632812 C 547.277344 309.265625 540.613281 307.640625 534.128906 304.808594 C 534.761719 303.453125 534.902344 301.835938 535.261719 300.347656 Z M 561.265625 288.921875 C 560.058594 288.082031 558.878906 287.210938 557.710938 286.332031 C 559 285.152344 560.300781 284.003906 561.953125 283.523438 C 567.816406 281.832031 574.105469 289.507812 579.394531 286.464844 C 579.988281 286.121094 580.667969 285.519531 581.308594 284.875 C 594.867188 293.335938 607.914062 302.773438 622.710938 308.925781 C 628.078125 311.160156 633.609375 312.96875 639.238281 314.421875 C 639.558594 315.71875 639.855469 317.03125 640.121094 318.371094 C 641.96875 327.808594 642.300781 337.40625 643.722656 346.902344 C 645.152344 356.453125 648.058594 365.527344 653.21875 373.734375 C 655.082031 376.691406 657.179688 379.515625 659.289062 382.335938 C 652.339844 380.070312 645.265625 378.21875 638.035156 377.035156 C 637.117188 376.882812 636.199219 376.761719 635.277344 376.644531 C 627.191406 358.089844 619.554688 339.265625 606.070312 323.804688 C 593.492188 309.378906 576.800781 299.726562 561.265625 288.921875 Z M 664.78125 364.535156 C 659.609375 356.789062 657.441406 347.859375 656.03125 338.769531 C 654.902344 331.507812 653.863281 324.28125 652.242188 317.144531 C 661.523438 318.652344 670.90625 319.308594 680.199219 320.726562 C 696.808594 323.257812 712.761719 328.851562 721.121094 344.398438 C 724.328125 350.367188 725.761719 357.25 727.472656 363.75 C 729.957031 373.195312 732.433594 382.664062 735.617188 391.910156 C 738.34375 399.835938 741.675781 407.351562 745.652344 414.523438 C 732.527344 410.390625 719.402344 406.234375 706.550781 401.3125 C 699.097656 398.460938 691.796875 395.25 684.460938 392.105469 C 683.710938 390.421875 682.832031 388.761719 681.824219 387.121094 C 676.878906 379.050781 670.027344 372.390625 664.78125 364.535156 Z M 727.804688 433.246094 C 741.828125 438.214844 762.484375 449.066406 776.046875 455.238281 C 792.128906 462.554688 804.640625 475.835938 820.726562 483.269531 C 824.679688 485.097656 828.78125 486.421875 832.894531 487.824219 C 835.121094 488.585938 837.007812 489.652344 838.269531 491.742188 C 841.078125 496.386719 842.398438 502.050781 843.902344 507.207031 C 846.875 517.394531 849.59375 527.386719 850.765625 538 C 851.25 542.402344 851.554688 546.816406 851.753906 551.238281 C 848.0625 546.734375 843.835938 542.757812 839.382812 538.867188 C 824.886719 526.199219 809.625 514.925781 798.308594 499.105469 C 787.03125 483.347656 781.125 473.960938 764.128906 464.230469 C 746.789062 454.300781 720.878906 446.347656 701.632812 442.175781 C 697.171875 441.210938 692.796875 440.058594 688.5625 438.632812 C 687.703125 434.195312 687.0625 429.71875 686.695312 425.222656 C 686.574219 423.738281 686.535156 422.273438 686.546875 420.820312 C 702.082031 427.867188 711.722656 427.546875 727.804688 433.246094 Z M 808.59375 440.257812 C 806.753906 439.042969 804.902344 437.847656 803.019531 436.691406 C 791.367188 429.546875 778.738281 425.183594 765.84375 420.964844 C 764.902344 419.949219 763.851562 418.917969 763.601562 418.589844 C 762.175781 416.714844 760.792969 414.832031 759.460938 412.894531 C 756.976562 409.273438 754.796875 405.449219 752.804688 401.539062 C 747.300781 390.730469 743.4375 379.214844 739.859375 367.65625 C 736.554688 356.96875 734.1875 344.628906 727.253906 335.5625 C 722.539062 329.402344 716.972656 324.804688 710.75 321.386719 C 708.40625 315.433594 704.679688 310.15625 700.5 305.144531 C 703.824219 306.726562 708.613281 308.464844 711.441406 307.035156 C 712.644531 306.425781 714.203125 305.425781 715.613281 304.464844 C 718.035156 305.460938 720.453125 306.460938 722.878906 307.460938 C 725.441406 308.515625 730.269531 313.207031 730.601562 316.1875 C 730.789062 317.84375 732.09375 319.183594 733.703125 319.609375 C 734.773438 319.890625 735.863281 319.960938 736.945312 319.886719 C 744.015625 330.039062 753.871094 338.0625 763.015625 346.300781 C 773.707031 355.933594 783.933594 366.015625 794.921875 375.335938 C 808.816406 387.125 823.097656 398.714844 837.859375 409.4375 C 837.152344 411.132812 836.402344 412.800781 835.566406 414.40625 C 831.113281 422.9375 824.265625 429.167969 816.488281 434.621094 C 813.828125 436.484375 811.171875 438.324219 808.59375 440.257812 Z M 821.421875 384.246094 C 810.820312 376.433594 800.363281 368.410156 790.234375 359.992188 C 782.945312 353.9375 775.773438 347.714844 768.601562 341.5 C 768.855469 341.367188 761.765625 330.496094 759.558594 315.828125 C 759.1875 313.347656 758.507812 310.800781 758.058594 308.175781 C 766.0625 309.710938 774.707031 307.996094 781.394531 303.324219 C 781.976562 303.472656 782.558594 303.613281 783.140625 303.738281 C 785.417969 304.230469 787.910156 304.425781 790.199219 304.039062 C 794.023438 304.769531 797.839844 304.714844 801.054688 302.675781 C 801.953125 302.109375 802.757812 301.410156 803.589844 300.746094 C 817.101562 309.9375 833.347656 314.359375 848.460938 320.339844 C 850.363281 321.09375 852.253906 321.890625 854.128906 322.730469 C 850.433594 334.511719 849.199219 347.164062 848.019531 359.425781 C 847.113281 368.8125 846.296875 378.277344 844.285156 387.507812 C 843.472656 391.226562 842.574219 395.027344 841.515625 398.792969 C 834.714844 394.082031 828.066406 389.140625 821.421875 384.246094 Z M 851.640625 401.703125 C 853.96875 392.125 855.523438 382.5625 856.269531 372.726562 C 857.035156 362.558594 857.292969 352.355469 858.363281 342.214844 C 858.933594 336.835938 859.738281 331.425781 861.046875 326.152344 C 865.039062 328.363281 868.820312 330.925781 872.222656 334.019531 C 879.269531 340.433594 883.332031 348.910156 885.945312 357.941406 C 890.359375 373.191406 891.753906 389.089844 896.273438 404.304688 C 892.550781 411.394531 889.46875 418.777344 887.6875 426.703125 C 887.515625 427.480469 887.382812 428.246094 887.242188 429.019531 C 876.773438 420.132812 864.046875 413.195312 853.085938 406.4375 C 852.320312 405.960938 851.5625 405.472656 850.804688 404.984375 C 851.097656 403.898438 851.375 402.804688 851.640625 401.703125 Z M 927.222656 253.242188 C 932.617188 247.960938 937.359375 242.34375 941.339844 236.269531 C 943.765625 236.429688 946.226562 236.296875 948.6875 236.054688 C 948.660156 239.832031 948.789062 243.667969 949.957031 247.269531 C 945.152344 252.027344 940.9375 257.324219 937.632812 263.386719 C 935.210938 259.445312 931.355469 256.121094 927.222656 253.242188 Z M 988.183594 262.140625 C 987.261719 259.890625 986.976562 257.601562 987.074219 255.296875 C 988.050781 255.109375 989.023438 254.921875 989.992188 254.699219 C 996.394531 253.230469 1001.480469 249.71875 1006.179688 245.613281 C 1008.761719 245.640625 1011.410156 245.023438 1013.898438 244.242188 C 1017.941406 242.96875 1021.960938 241.273438 1026.191406 241.324219 C 1030.089844 241.367188 1033.808594 242.886719 1037.671875 243.359375 C 1037.800781 243.371094 1037.929688 243.375 1038.058594 243.386719 C 1036.96875 244.890625 1035.851562 246.371094 1034.660156 247.804688 C 1029.691406 254.019531 1021.140625 258.425781 1016.519531 265.128906 C 1009.960938 267.886719 1003.710938 271.359375 998.28125 275.753906 C 998.238281 275.699219 998.199219 275.652344 998.160156 275.597656 C 994.753906 271.238281 990.316406 267.355469 988.183594 262.140625 Z M 1033.480469 254.273438 C 1036.429688 251.089844 1039.050781 247.414062 1041.351562 243.488281 C 1043.921875 243.378906 1046.429688 242.847656 1048.890625 242.015625 C 1048.929688 242.347656 1048.980469 242.675781 1049.011719 243.007812 C 1049.53125 248.515625 1047.898438 252.777344 1045.628906 257.226562 C 1043.171875 257.539062 1040.71875 257.945312 1038.269531 258.464844 C 1034.171875 259.339844 1029.988281 260.421875 1025.839844 261.730469 C 1028.371094 259.210938 1031.109375 256.855469 1033.480469 254.273438 Z M 1045.851562 263.605469 C 1047.640625 263.257812 1049.441406 262.945312 1051.261719 262.703125 C 1055.589844 262.132812 1059.949219 261.839844 1064.308594 261.652344 C 1056.230469 267.804688 1049.089844 274.976562 1043.421875 283.503906 C 1043.558594 276.765625 1043.460938 270.046875 1045.851562 263.605469 Z M 1151.101562 295.09375 C 1146.140625 287.082031 1139.5 280.007812 1135.820312 271.226562 C 1133.320312 265.285156 1133.359375 258.929688 1131.898438 252.886719 C 1134.789062 253.882812 1137.730469 254.242188 1140.789062 253.457031 C 1144.371094 252.539062 1147.429688 250.109375 1151.050781 249.367188 C 1154.339844 248.695312 1157.839844 249.472656 1161.039062 248.457031 C 1166.839844 246.613281 1169.210938 238.214844 1165.230469 233.609375 C 1169.050781 234.757812 1172.871094 235.902344 1176.691406 237.050781 C 1178.050781 238.210938 1179.480469 239.417969 1180.980469 240.652344 C 1180.5 241.664062 1180.179688 242.726562 1180.109375 243.8125 C 1179.820312 246.816406 1181.628906 249.742188 1182.671875 252.441406 C 1184.96875 258.417969 1183.738281 266.511719 1183.390625 272.757812 C 1183.210938 276.003906 1182.980469 279.253906 1182.671875 282.496094 C 1174.410156 291.539062 1167.121094 301.714844 1158.75 310.363281 C 1158.390625 310.738281 1158.039062 311.121094 1157.679688 311.5 C 1155.890625 305.863281 1154.269531 300.195312 1151.101562 295.09375 Z M 1182.789062 245.980469 C 1182.320312 244.660156 1182.390625 243.351562 1182.738281 242.09375 C 1191.308594 249.035156 1201.390625 256.3125 1209.050781 259.1875 C 1210.890625 259.878906 1212.738281 260.359375 1214.589844 260.6875 C 1214.828125 261.015625 1215.140625 261.289062 1215.519531 261.515625 C 1209.300781 262.882812 1203.339844 265.015625 1197.941406 268.746094 C 1194.390625 271.191406 1191.128906 273.980469 1188.03125 276.96875 C 1188.210938 269.300781 1188.019531 261.425781 1186.390625 254.222656 C 1185.71875 251.265625 1183.789062 248.8125 1182.789062 245.980469 Z M 1190.53125 286.332031 C 1196.230469 279.546875 1202.398438 273.113281 1210.828125 269.855469 C 1219.878906 266.355469 1229.679688 265.140625 1239.199219 263.566406 C 1240.199219 263.398438 1241.21875 263.234375 1242.238281 263.0625 C 1243.210938 264.09375 1243.949219 265.316406 1244.308594 266.714844 C 1244.46875 267.339844 1244.800781 267.878906 1245.261719 268.34375 C 1238.101562 270.738281 1230.75 272.589844 1223.441406 274.488281 C 1210.289062 277.902344 1198.730469 284.890625 1186.738281 291.003906 C 1187.988281 289.433594 1189.238281 287.867188 1190.53125 286.332031 Z M 1266.980469 139.28125 C 1267.421875 139.359375 1267.878906 139.449219 1268.339844 139.53125 C 1265.21875 140.101562 1262.210938 141.359375 1259.480469 143.390625 C 1258.101562 140.609375 1256.460938 138.101562 1254.601562 135.851562 C 1256.160156 136.320312 1257.710938 136.78125 1259.269531 137.25 C 1261.808594 138.011719 1264.371094 138.78125 1266.980469 139.28125 Z M 422.796875 171.699219 C 419.144531 169.839844 415.371094 167.902344 412.019531 165.5 C 416.910156 164.742188 421.796875 163.5625 425.527344 162.347656 C 427.832031 161.597656 432.390625 160.019531 432.390625 160.019531 C 432.390625 160.019531 439.535156 162.269531 442.570312 164.570312 C 444.984375 166.394531 447.503906 168.144531 450.164062 169.578125 C 446.753906 169.910156 443.289062 170.046875 439.890625 170.296875 C 434.582031 170.695312 429.3125 171.429688 424.070312 172.347656 C 423.644531 172.132812 423.222656 171.914062 422.796875 171.699219 Z M 172.820312 353.417969 C 169.140625 354.832031 166.070312 354.585938 163.152344 353.511719 C 166.535156 349.863281 167.445312 343.339844 164.761719 338.914062 C 169.980469 343.066406 175.605469 346.5625 181.5 349.339844 C 178.636719 350.765625 175.808594 352.304688 172.820312 353.417969 Z M 265.398438 336.78125 C 262.734375 336.746094 260.078125 336.644531 257.425781 336.496094 C 256.28125 334.609375 254.742188 332.894531 253.175781 331.570312 C 249.242188 328.242188 244.429688 324.6875 244.15625 319.152344 C 244.398438 315.574219 242.128906 312.472656 238.761719 310.21875 C 245.457031 312.28125 255.140625 316.253906 256.285156 311.0625 C 256.578125 309.054688 258.3125 308.214844 260.34375 307.625 C 261.449219 309.953125 262.390625 312.363281 263.121094 314.851562 C 265.207031 321.96875 265.546875 329.40625 265.398438 336.78125 Z M 270.53125 336.773438 C 269.628906 326.039062 267.339844 315.96875 262.207031 307.140625 C 264.859375 306.496094 267.457031 305.835938 267.746094 303.363281 C 267.890625 299.980469 270.113281 297.160156 273.03125 295.523438 C 275.410156 297.539062 277.777344 299.566406 280.253906 301.460938 C 284.199219 304.480469 287.628906 307.496094 290.375 311.699219 C 292.972656 315.585938 295.339844 319.722656 299.09375 322.628906 C 306.628906 328.589844 316.269531 330.660156 324.671875 335.054688 C 306.59375 334.085938 288.589844 336.5 270.53125 336.773438 Z M 384.367188 342.011719 C 374.511719 341.273438 364.660156 340.355469 354.863281 339.042969 C 348.15625 338.144531 341.503906 336.910156 334.804688 336.027344 C 331.109375 332.558594 325.984375 330.460938 321.253906 328.714844 C 313.457031 325.839844 303.675781 323.699219 297.898438 317.265625 C 294.929688 313.914062 292.664062 310.007812 289.65625 306.691406 C 286.761719 303.496094 283.199219 301.34375 279.757812 298.824219 C 277.976562 297.53125 276.230469 296.179688 274.480469 294.832031 C 277.613281 293.585938 281.234375 293.636719 283.960938 295.6875 C 282.695312 296.996094 282.363281 299.121094 283.171875 300.753906 C 286.953125 302.179688 291.542969 301.101562 294.296875 298.144531 C 295.871094 296.453125 297.023438 294.125 299.214844 293.398438 C 300.667969 292.921875 302.25 293.277344 303.738281 293.640625 C 311.246094 295.457031 318.753906 297.273438 326.261719 299.09375 C 328.777344 299.703125 331.359375 300.316406 333.925781 300 C 341.75 299.039062 346.785156 290 354.632812 289.273438 C 359.351562 288.839844 363.695312 291.554688 368.003906 293.523438 C 369.285156 294.109375 370.675781 294.617188 372.089844 294.964844 C 373.105469 295.855469 374.085938 296.785156 375.011719 297.773438 C 382.570312 305.78125 382.289062 317.167969 387.132812 326.574219 C 391.859375 335.027344 398.863281 339.511719 406.960938 343.734375 C 399.417969 343.171875 391.882812 342.574219 384.367188 342.011719 Z M 443.25 345.902344 C 435.074219 345.597656 426.886719 345.121094 418.695312 344.566406 C 413.78125 341.875 408.601562 339.753906 403.492188 337.167969 C 395.683594 333.210938 389.976562 326.992188 387.234375 318.609375 C 385.5625 313.898438 384.363281 308.992188 382.21875 304.460938 C 380.558594 300.945312 378.136719 298.003906 375.289062 295.425781 C 377.554688 295.507812 379.71875 294.992188 381.433594 293.503906 C 382.746094 292.359375 383.746094 290.703125 385.0625 289.644531 C 386.722656 290.253906 388.378906 290.882812 390.011719 291.566406 C 401.21875 296.261719 410.523438 304.558594 422.042969 308.59375 C 434.042969 312.800781 447.101562 312.820312 459.0625 317.371094 C 463.742188 319.144531 468.46875 321.695312 472.023438 325.300781 C 476.078125 332.371094 479.246094 339.730469 481.949219 347.335938 C 469.222656 345.707031 456.28125 346.386719 443.25 345.902344 Z M 495.578125 350.152344 C 494.488281 347.011719 493.351562 343.878906 492.074219 340.769531 C 487.292969 329.128906 480.804688 318.121094 472.839844 308.347656 C 473.628906 308.214844 474.414062 308.027344 475.1875 307.785156 C 479.054688 306.578125 486.871094 305.789062 486.871094 305.789062 C 486.871094 305.789062 488.914062 306.976562 489.949219 307.554688 C 491.871094 308.628906 494.066406 309.109375 496.238281 309.484375 C 507.144531 311.367188 518.453125 310.890625 529.164062 308.097656 C 530.519531 307.742188 531.933594 307.308594 532.96875 306.394531 C 538.789062 309.378906 544.851562 311.464844 551.359375 313.023438 C 564.066406 316.0625 576.964844 318.867188 589.417969 322.933594 C 600.324219 333.804688 608.332031 346.503906 614.535156 360.984375 C 616.636719 365.890625 618.597656 370.855469 620.53125 375.832031 C 616.828125 375.871094 613.121094 376.058594 609.394531 376.335938 C 599.648438 377.066406 589.90625 378.261719 580.121094 378.269531 C 570.3125 378.273438 565.089844 373.261719 555.78125 370.207031 C 546.570312 367.183594 533.351562 367.070312 524.507812 363.09375 C 516.300781 359.398438 508.496094 354.757812 500.042969 351.621094 C 498.558594 351.074219 497.070312 350.597656 495.578125 350.152344 Z M 507.628906 380.855469 C 506.449219 378.722656 505.394531 376.554688 504.414062 374.363281 C 511.550781 378.171875 518.664062 381.9375 526.085938 385.226562 C 538.730469 390.832031 551.46875 395.640625 564.835938 398.109375 C 554.289062 403.125 544.050781 408.953125 533.394531 413.761719 C 523.371094 403.996094 514.398438 393.140625 507.628906 380.855469 Z M 720.707031 550.011719 C 705.878906 542.511719 691.207031 535.179688 677.339844 525.957031 C 663.1875 516.542969 649.703125 506.15625 636.453125 495.523438 C 620.90625 483.050781 608.988281 477.441406 593.179688 465.300781 C 577.449219 453.222656 557.480469 435.117188 542.476562 422.101562 C 541.964844 421.65625 541.457031 421.203125 540.945312 420.757812 C 543.636719 419.644531 546.3125 418.492188 548.976562 417.304688 C 564.359375 410.304688 578.992188 402.4375 595.59375 399.589844 C 607.144531 399.054688 618.683594 398.148438 630.121094 399.652344 C 632.0625 404.0625 634.132812 408.421875 636.421875 412.683594 C 643.789062 426.40625 653.574219 438.960938 666.910156 447.316406 C 668.519531 448.230469 670.140625 449.089844 671.769531 449.914062 C 672.757812 454.625 673.9375 459.277344 675.238281 463.824219 C 683.148438 491.449219 697.835938 516.421875 713.847656 540.042969 C 716.125 543.402344 718.457031 546.738281 720.808594 550.0625 C 720.773438 550.046875 720.742188 550.03125 720.707031 550.011719 Z M 857.414062 717.773438 C 857.265625 721.585938 857.007812 725.378906 856.691406 729.167969 C 852.097656 717.097656 845.390625 701.308594 839.992188 689.671875 C 826.101562 659.757812 807.703125 650.429688 795.359375 625.964844 C 792.144531 619.546875 789.179688 613 786.175781 606.476562 C 786.296875 606.359375 786.421875 606.242188 786.546875 606.125 C 786.191406 605.757812 785.847656 605.382812 785.496094 605.011719 C 780.558594 594.328125 775.449219 583.734375 768.875 573.90625 C 764.691406 567.648438 760.035156 561.710938 755.492188 555.71875 C 737.054688 531.394531 717.410156 507.898438 703.449219 480.59375 C 699.808594 473.472656 696.585938 466.050781 693.9375 458.425781 C 703.085938 460.9375 712.425781 462.726562 721.539062 465.367188 C 739.925781 470.699219 755.859375 480.347656 768.367188 494.941406 C 774.734375 502.371094 779.523438 510.839844 785.359375 518.648438 C 791.105469 526.335938 792.382812 534.621094 799.390625 541.160156 C 806.042969 547.371094 818.289062 551.957031 824.882812 558.234375 C 831.351562 564.386719 835.84375 570.84375 839.195312 579.15625 C 842.574219 587.535156 845.109375 596.214844 848.644531 604.53125 C 849.957031 607.601562 851.472656 610.507812 853.164062 613.300781 C 854.132812 627.988281 861.5625 641.863281 862.429688 656.550781 C 863.613281 676.664062 858.207031 697.632812 857.414062 717.773438 Z M 876.902344 503.289062 C 876.21875 501.179688 875.519531 499.070312 874.8125 496.960938 C 869.269531 480.367188 862.15625 464.292969 844.160156 458.660156 C 837.265625 456.503906 830.828125 454.390625 824.5625 450.671875 C 823.015625 449.753906 821.492188 448.796875 819.980469 447.824219 C 827.421875 442.199219 834.605469 436.601562 840.140625 428.988281 C 843.101562 424.921875 845.382812 420.546875 847.214844 415.980469 C 860.464844 424.8125 874.625 433.058594 885.140625 445.074219 C 885.621094 445.628906 886.09375 446.191406 886.554688 446.765625 C 887.765625 458.980469 892.132812 470.726562 897.273438 482.371094 C 897.460938 482.800781 897.652344 483.230469 897.839844 483.660156 C 894.023438 487.191406 890.210938 490.730469 886.351562 494.230469 C 883.117188 497.164062 879.925781 500.164062 876.902344 503.289062 Z M 905.902344 536.34375 C 910.507812 555.050781 901.976562 574.652344 900.179688 593.851562 C 898.722656 609.402344 896.71875 624.851562 892.816406 639.945312 C 890.796875 620.660156 879.851562 594.539062 882.730469 575.351562 C 885.933594 553.980469 886.515625 542.308594 882.371094 522.875 C 881.992188 521.105469 881.570312 519.355469 881.125 517.609375 C 887.390625 509.550781 895.175781 502.546875 902.765625 495.550781 C 904.296875 499.742188 905.558594 504.019531 906.253906 508.46875 C 907.695312 517.71875 903.675781 527.304688 905.902344 536.34375 Z M 910.289062 444.472656 C 908.835938 434.796875 911.289062 425.195312 915.109375 416.339844 C 922.179688 399.953125 932.9375 385.453125 939.90625 369.019531 C 940.65625 368.390625 941.414062 367.777344 942.195312 367.1875 C 955.054688 357.074219 969.953125 349.738281 979.4375 335.894531 C 989.46875 320.171875 987.132812 299.847656 1000.160156 285.550781 C 1006.46875 278.617188 1014.921875 274.164062 1023.46875 270.589844 C 1029.53125 268.054688 1035.710938 265.9375 1042.058594 264.425781 C 1038.371094 273.996094 1039.921875 284.554688 1037.058594 294.414062 C 1037.148438 294.4375 1037.238281 294.464844 1037.339844 294.488281 C 1036.671875 295.953125 1036.03125 297.433594 1035.449219 298.964844 C 1030.328125 312.390625 1028.289062 326.691406 1024.390625 340.46875 C 1018.230469 343.238281 1012.570312 348.378906 1012.570312 348.378906 C 1012.570312 348.378906 996.710938 343.929688 990.34375 348.378906 C 986.71875 350.910156 986.546875 357.371094 990.027344 360.117188 C 981.832031 361.878906 973.628906 363.644531 965.5625 365.972656 C 962.996094 366.714844 960.269531 367.640625 958.671875 369.878906 C 957.070312 372.117188 957.445312 376.050781 959.96875 376.945312 C 963.53125 375.835938 967.304688 377.355469 970.738281 378.847656 C 973.019531 379.835938 975.304688 380.828125 977.585938 381.820312 C 979.605469 382.699219 983.40625 386.589844 983.671875 389.0625 C 983.816406 390.4375 984.84375 391.550781 986.113281 391.902344 C 991.929688 393.523438 998.433594 387.597656 999.957031 380.613281 C 1001.609375 381.429688 1003.351562 382.007812 1005.128906 382.382812 C 996.648438 397.113281 986.792969 411.0625 974.652344 423.03125 C 961.015625 436.511719 944.035156 445.828125 928.722656 457.191406 C 924.996094 459.953125 921.382812 462.839844 917.84375 465.804688 C 914.492188 459.003906 911.414062 451.980469 910.289062 444.472656 Z M 1023.761719 434.3125 C 1017.238281 441.054688 1004.648438 448.453125 996.914062 453.679688 C 988.660156 459.257812 980.257812 464.609375 971.988281 470.160156 C 958.875 478.964844 944.53125 488.855469 932.578125 500.570312 C 932.308594 499.464844 932.019531 498.359375 931.703125 497.265625 C 929.601562 489.949219 926.441406 483.050781 923.078125 476.253906 C 934.003906 466.640625 945.847656 458.082031 957.769531 449.746094 C 972.460938 439.476562 985.144531 427.328125 995.851562 412.984375 C 1003.710938 406.378906 1010.96875 399.054688 1019.441406 393.195312 C 1024.851562 389.453125 1029.070312 385.078125 1031.878906 379.191406 C 1034.460938 379.539062 1036.988281 379.308594 1039.171875 377.851562 C 1039.640625 377.535156 1040.078125 377.164062 1040.519531 376.792969 C 1041.148438 379.523438 1042 382.191406 1043.390625 384.609375 C 1045.199219 387.742188 1048.128906 390.429688 1051.558594 391.355469 C 1051.058594 391.980469 1050.570312 392.609375 1050.089844 393.253906 C 1039.488281 407.386719 1036.109375 421.558594 1023.761719 434.3125 Z M 1077.578125 397.527344 C 1072.078125 401.890625 1067.210938 407.191406 1061.378906 411.128906 C 1062.730469 409.015625 1064.101562 406.921875 1065.53125 404.859375 C 1068.328125 400.808594 1071.53125 397.144531 1075.03125 393.816406 C 1077.121094 394.34375 1079.171875 394.480469 1080.671875 393.722656 C 1083.558594 392.261719 1088.488281 388.535156 1088.488281 388.535156 C 1088.488281 388.535156 1089.609375 389.445312 1090.980469 390.222656 C 1086.261719 391.984375 1081.800781 394.183594 1077.578125 397.527344 Z M 1143.128906 344.847656 C 1146.671875 340.742188 1150.089844 336.515625 1153.488281 332.296875 C 1159.488281 324.855469 1165.898438 317.753906 1171.839844 310.273438 C 1174.429688 307 1176.960938 303.671875 1179.488281 300.347656 C 1193.851562 293.28125 1206.769531 283.070312 1222.070312 278.042969 C 1230.460938 275.28125 1238.96875 272.785156 1247.121094 269.542969 C 1250.828125 271.132812 1257.539062 270.90625 1264.28125 269.875 C 1267.738281 273.304688 1270.578125 277.277344 1272.230469 281.898438 C 1274.199219 287.394531 1274.691406 292.765625 1274.21875 298.175781 C 1268.261719 295.511719 1262.53125 292.65625 1260.328125 296.859375 C 1259.140625 299.480469 1257.941406 302.097656 1256.75 304.714844 C 1250.730469 301.351562 1241.699219 298.675781 1238.179688 304.601562 C 1237.109375 306.402344 1236.808594 308.804688 1232.609375 308.074219 C 1231.5 307.882812 1230.519531 307.285156 1229.679688 306.550781 C 1222.800781 300.585938 1202.269531 306.234375 1202.96875 315.453125 C 1202.699219 320.363281 1197.890625 323.519531 1193.949219 326.46875 C 1191.140625 328.582031 1188.390625 331.808594 1187.941406 335.046875 C 1172.980469 338.191406 1157.929688 341.015625 1143.128906 344.847656 Z M 1230.730469 354.371094 C 1221.398438 354.6875 1211.449219 352.933594 1202.230469 351.632812 C 1197.828125 351.011719 1193.488281 350.191406 1189.210938 349.136719 C 1193.558594 348.121094 1197.910156 347.085938 1202.238281 345.996094 C 1205.171875 346.300781 1208.199219 346.277344 1211.03125 346.144531 C 1217.589844 345.835938 1224.140625 345.527344 1230.699219 345.21875 C 1232.5 345.132812 1234.359375 345.054688 1236.070312 345.621094 C 1237.589844 346.121094 1238.921875 347.101562 1240.441406 347.609375 C 1242.640625 348.347656 1245.050781 348.039062 1247.328125 347.628906 C 1247.929688 347.519531 1248.53125 347.402344 1249.128906 347.28125 C 1243.808594 351.46875 1238 354.121094 1230.730469 354.371094 Z M 1302.371094 294.367188 C 1300.910156 294.816406 1299.441406 295.246094 1297.988281 295.726562 C 1293.039062 297.351562 1288.179688 299.191406 1283.378906 301.15625 C 1281.878906 301.035156 1280.269531 300.589844 1278.609375 299.988281 C 1278.808594 293.515625 1277.851562 287.191406 1275 280.894531 C 1272.941406 276.34375 1269.859375 272.710938 1266.28125 269.542969 C 1270.550781 268.789062 1274.691406 267.757812 1277.960938 266.695312 C 1280.261719 265.941406 1284.820312 264.363281 1284.820312 264.363281 C 1284.820312 264.363281 1291.960938 266.613281 1295 268.914062 C 1298.75 271.757812 1302.761719 274.410156 1307.171875 275.976562 C 1306.148438 277.621094 1305.371094 279.449219 1304.910156 281.496094 C 1303.988281 285.53125 1304.179688 290.472656 1302.371094 294.367188 Z M 1307.679688 292.808594 C 1307.710938 292.648438 1307.738281 292.496094 1307.761719 292.335938 C 1308.378906 287.671875 1307.570312 282.5625 1309.421875 278.128906 C 1309.609375 277.675781 1309.828125 277.246094 1310.050781 276.828125 C 1315.480469 278.054688 1321.621094 277.199219 1325.710938 273.441406 C 1326.75 272.492188 1329.148438 271.105469 1329.148438 271.105469 C 1329.148438 271.105469 1333.5 276.277344 1335.640625 279.40625 C 1338.328125 283.347656 1344.308594 283.027344 1348.730469 281.222656 C 1353.140625 279.414062 1362.160156 276.695312 1362.160156 276.695312 C 1362.160156 276.695312 1364.03125 279.871094 1365.160156 283.085938 C 1362.320312 283.289062 1359.480469 283.515625 1356.640625 283.804688 C 1340.128906 285.503906 1323.679688 288.328125 1307.679688 292.808594 Z M 1378.359375 303.769531 C 1369.460938 303.621094 1361.960938 300.195312 1354.121094 296.328125 C 1351.738281 295.160156 1349.378906 294.039062 1346.960938 293.078125 C 1356.238281 291.492188 1365.589844 290.292969 1374.960938 289.375 C 1379.910156 288.890625 1384.820312 288.453125 1389.691406 287.773438 C 1391.980469 291.558594 1396.148438 298.246094 1399.398438 302.265625 C 1392.46875 303.519531 1385.390625 304.109375 1378.359375 303.769531 Z M 1489.53125 287.796875 C 1488.398438 284.527344 1487.441406 281.261719 1484.28125 280.636719 C 1492.460938 280.085938 1500.761719 281.472656 1508.308594 284.65625 C 1507.730469 285.621094 1507.441406 286.617188 1507.359375 287.625 C 1505.589844 287.734375 1503.820312 287.804688 1502.050781 287.84375 C 1497.878906 287.917969 1493.710938 287.820312 1489.53125 287.796875" /></g></svg>