<?xml version="1.0" encoding="UTF-8" standalone="no"?><svg xmlns="http://www.w3.org/2000/svg" xmlns:xlink="http://www.w3.org/1999/xlink" fill-opacity="0" stroke="red" height="371" preserveAspectRatio="xMidYMid meet" version="1" viewBox="0.0 0.0 740.8 371.0" width="740.8" zoomAndPan="magnify"><defs><clipPath id="a"><path d="M 0 0 L 740.800781 0 L 740.800781 370.988281 L 0 370.988281 Z M 0 0"/></clipPath></defs><g><g clip-path="url(#a)" id="change1_1"><path d="M 406.464844 134.726562 C 393.082031 141.066406 383.445312 142.214844 373.292969 134.296875 C 377.113281 133.472656 380.757812 132.378906 383.785156 130.9375 C 389.5625 132.144531 397.460938 131.8125 403.285156 123.003906 C 404.074219 126.519531 405.050781 130.546875 406.464844 134.726562 Z M 358.628906 206.351562 C 358.660156 204.441406 358.726562 202.535156 358.828125 200.648438 C 338.394531 192.195312 323.3125 154.539062 323.3125 154.539062 C 323.3125 154.539062 319.433594 140.394531 333.1875 136.152344 C 346.9375 131.90625 355.578125 139.773438 355.578125 139.773438 C 358.808594 138.183594 366.535156 136.328125 370.035156 136.0625 C 381.621094 146.179688 392.140625 144.347656 407.109375 136.558594 C 409.363281 142.699219 412.621094 149.050781 417.660156 154.496094 C 417.660156 154.496094 397.941406 164.277344 387.363281 189.011719 C 387.011719 202.429688 375.675781 209.175781 367.390625 212.535156 C 362.589844 214.480469 359.976562 210.25 358.628906 206.351562 Z M 170.863281 97.8125 C 170.585938 97.90625 170.300781 98.015625 170 98.132812 C 160.136719 102.007812 165.421875 90.734375 159.785156 96.019531 C 159.175781 96.589844 158.679688 97.121094 158.277344 97.617188 C 205.695312 126.777344 220.953125 149.152344 232.355469 172.113281 C 249.851562 178.925781 262.769531 188.382812 274.632812 200.828125 C 289.007812 205.222656 297.476562 209.703125 311.675781 214.09375 C 307.078125 205.445312 304.242188 199.625 300.703125 188.503906 C 304.40625 190.039062 305.722656 190.042969 307.570312 190.808594 C 310.476562 196.882812 318.304688 222.132812 339.273438 226.554688 C 348.960938 211.699219 319.71875 170.515625 281.851562 149.207031 C 259.851562 142.046875 252.253906 137.214844 240.8125 126.667969 C 226.824219 125.042969 193.621094 119.210938 170.863281 97.8125 Z M 200.804688 101.757812 C 198.972656 102.5 197.296875 101.085938 193.253906 98.484375 C 188.320312 95.316406 187.261719 96.722656 183.386719 98.839844 C 180.269531 100.539062 179.886719 96.535156 174.71875 96.929688 C 179.316406 101.257812 187.265625 107.398438 198.269531 110.996094 C 199.699219 109.144531 200.4375 105.53125 200.804688 101.757812 Z M 236.28125 98.789062 C 241.578125 105.386719 254.492188 109.933594 262.566406 110.550781 C 273.742188 122.867188 279.433594 134.078125 280.269531 139.351562 C 267.085938 137.457031 254.167969 129.023438 243.628906 121.03125 C 232.414062 119.6875 216.265625 118.785156 201.441406 112.050781 C 202.511719 108.472656 203.421875 103.453125 203.753906 98.929688 C 204.691406 97.933594 206.164062 97.828125 212.628906 100.597656 C 222.492188 104.824219 218.96875 96.019531 225.308594 99.542969 C 231.085938 102.75 231.015625 100.992188 236.28125 98.789062 Z M 251.542969 91.402344 C 254.292969 94.28125 258.257812 97.125 264.429688 98.316406 C 264.8125 100.878906 264.050781 103.441406 262.140625 107.066406 C 248.96875 104.613281 243.964844 101.902344 239.472656 97.6875 C 245.203125 96.257812 246.253906 99.65625 248.210938 96.722656 C 249.761719 94.394531 248.085938 91.878906 251.542969 91.402344 Z M 264.464844 90.941406 C 264.636719 92.007812 264.675781 93.253906 264.476562 95.484375 C 261.167969 94.808594 257.996094 93.480469 255.523438 91.492188 C 256.183594 91.566406 256.914062 91.664062 257.722656 91.789062 C 261.964844 92.453125 263.710938 91.820312 264.464844 90.941406 Z M 296.429688 78.792969 C 296.984375 80.695312 297.445312 82.730469 297.804688 84.84375 C 297.535156 85.960938 297.378906 87.128906 297.527344 88.269531 C 297.757812 89.96875 298.09375 91.15625 298.585938 91.929688 C 298.800781 95.921875 298.65625 99.984375 298.101562 103.796875 C 314.925781 112.777344 321.453125 136.59375 314.5 151.003906 C 297.398438 148.175781 288.054688 140.925781 288.054688 140.925781 C 282.121094 126.605469 276.007812 118.117188 267.074219 108.039062 C 268.175781 101.46875 268.339844 95.835938 267.449219 89.738281 C 271.484375 92.550781 275.414062 93.011719 277.097656 88.972656 C 278.859375 84.746094 274.632812 78.757812 281.324219 82.632812 C 288.015625 86.507812 287.3125 81.222656 295.0625 79.109375 C 295.578125 78.96875 296.03125 78.867188 296.429688 78.792969 Z M 342.300781 110.164062 C 340.335938 120.660156 336.199219 127.859375 323.3125 128.992188 C 318.964844 117.027344 313.382812 107.804688 302.6875 100.96875 C 302.769531 97.921875 302.785156 95.273438 302.671875 92.726562 C 303.144531 92.574219 303.664062 92.375 304.222656 92.144531 C 308.449219 90.382812 313.734375 95.664062 309.15625 100.949219 C 304.574219 106.234375 314.441406 101.652344 315.496094 106.585938 C 316.554688 111.519531 318.667969 110.816406 324.65625 105.53125 C 330.644531 100.246094 327.472656 107.289062 333.109375 110.816406 C 336.570312 112.976562 339.636719 111.15625 342.300781 110.164062 Z M 368.421875 112.121094 C 362.007812 117.164062 352.136719 119.535156 342.792969 119.621094 C 343.710938 116.789062 344.691406 113.050781 345.128906 109.648438 C 345.726562 109.722656 346.300781 109.96875 346.851562 110.460938 C 350.375 113.632812 349.667969 111.167969 359.535156 109.054688 C 365.128906 107.855469 366.871094 110.054688 368.421875 112.121094 Z M 375.601562 115.296875 C 368.535156 123.101562 363.085938 126.769531 348.347656 129.785156 C 344.867188 128.667969 342.089844 128.566406 337.242188 129.078125 C 339.59375 126.664062 340.621094 125.660156 342.265625 122.714844 C 350.4375 122.027344 360.449219 119.664062 369.777344 113.761719 C 370.613281 114.578125 371.640625 115.136719 373.273438 115.042969 C 374.476562 114.972656 375.179688 115.070312 375.601562 115.296875 Z M 378.894531 120.464844 C 376.339844 121.355469 373.621094 121.941406 370.738281 122.359375 C 374.054688 119.8125 375.074219 118.929688 376.292969 117.28125 C 376.398438 118.273438 376.765625 119.441406 378.894531 120.464844 Z M 401.949219 117.03125 C 402.207031 118.113281 402.472656 119.316406 402.757812 120.609375 C 398.144531 127.269531 393.785156 130.632812 383.429688 128.550781 C 375.949219 131.269531 360.289062 136.292969 352.402344 131.644531 C 360.277344 129.464844 364.273438 127.988281 369.414062 124.21875 C 374.628906 123.519531 377.554688 122.753906 381.101562 121.277344 C 387.460938 123.136719 384.390625 118.605469 389.476562 119.621094 C 394.761719 120.679688 394.058594 118.917969 397.226562 116.804688 C 398.816406 115.742188 400.40625 115.746094 401.949219 117.03125 Z M 416.972656 129.230469 C 414.84375 130.417969 412.804688 131.527344 410.847656 132.546875 C 410.398438 131.308594 409.972656 130.023438 409.554688 128.683594 C 412.011719 129.425781 414.929688 127.59375 416.972656 129.230469 Z M 453.308594 137.121094 C 439.898438 159.625 425.058594 157.316406 425.058594 157.316406 C 423.613281 155.210938 424.578125 152.71875 425.410156 151.503906 C 418.167969 147.054688 414.347656 141.53125 411.46875 134.199219 C 413.546875 133.039062 415.707031 131.785156 417.964844 130.457031 L 418.015625 130.542969 C 420.832031 135.828125 423.648438 128.429688 428.230469 134.066406 C 432.808594 139.703125 433.867188 137.589844 435.980469 134.417969 C 438.09375 131.246094 442.320312 133.714844 445.492188 138.648438 C 447.992188 142.535156 450.714844 137.878906 453.308594 137.121094 Z M 461.554688 137.460938 C 460 143.984375 454.128906 161.792969 434.324219 176.007812 C 419.535156 182.863281 406.320312 192.839844 392.648438 205.941406 C 395.039062 199.359375 395.496094 196.308594 395.066406 191.847656 C 402 173.105469 413.167969 166.386719 423.273438 161.789062 C 435.171875 163.609375 448.050781 153.925781 457.175781 138.917969 C 458.644531 139.652344 459.644531 139.023438 461.554688 137.460938 Z M 523.648438 125.691406 C 518.378906 128.738281 509.9375 134.292969 506.3125 140.394531 C 502.230469 147.257812 501.785156 153.136719 501.824219 155.675781 C 495.667969 157.855469 489.390625 160.738281 483.1875 164.894531 C 469.132812 165.496094 456.875 167.691406 445.675781 171.480469 C 451.152344 166.355469 460.609375 154.984375 464.789062 134.792969 C 466.617188 133.359375 466.476562 134.308594 471.914062 136.882812 C 478.605469 140.054688 477.550781 133.011719 482.132812 135.828125 C 486.710938 138.648438 486.710938 138.292969 490.234375 134.769531 C 493.757812 131.246094 489.882812 132.65625 497.984375 134.769531 C 506.085938 136.882812 499.742188 128.429688 505.027344 131.246094 C 510.3125 134.066406 509.257812 131.246094 511.019531 127.019531 C 512.777344 122.792969 514.539062 127.371094 518.414062 126.316406 C 521.273438 125.535156 522.636719 124.71875 523.648438 125.691406 Z M 537.003906 145.992188 C 528.050781 149.238281 517.253906 150.78125 505.882812 154.324219 C 505.828125 151.035156 506.566406 142.007812 515.476562 134.914062 C 519.539062 131.683594 522.585938 129.46875 524.816406 127.957031 C 525.898438 130.925781 526.148438 131.628906 527.996094 129.609375 C 529.933594 127.488281 532.226562 130.671875 531.695312 134.914062 C 531.167969 139.15625 538.046875 138.980469 536.457031 142.691406 C 535.792969 144.246094 536.148438 145.398438 537.003906 145.992188 Z M 566.886719 145.539062 C 550.976562 156.929688 530.679688 168.03125 499.640625 163.242188 C 518.871094 154.34375 533.042969 155.09375 548.746094 145.789062 C 550.507812 146.128906 554.0625 145.761719 557.085938 144.109375 C 560.617188 142.175781 563.132812 144.796875 566.886719 145.539062 Z M 132.871094 104.632812 C 140.988281 111.726562 159.464844 124.34375 188.664062 124.886719 C 206.328125 140.800781 221.640625 160.039062 226.1875 178.644531 C 247.488281 187.945312 261.945312 196.203125 271.105469 210.171875 C 297.367188 214.410156 329.421875 228.679688 342.097656 250.171875 C 342.800781 289.984375 310.410156 355.902344 298.773438 370.988281 C 314.039062 370.871094 330.210938 370.753906 346.121094 370.636719 C 357.285156 345.535156 368.296875 289.53125 369.398438 264.765625 C 357.109375 245.105469 379.425781 223.015625 395.292969 217.042969 C 422.242188 184.101562 455.53125 170.886719 483.539062 172.464844 C 486.644531 170.34375 489.613281 168.511719 492.476562 166.910156 C 532.664062 172.761719 550.710938 162.734375 576.371094 142.546875 C 576.777344 142.667969 577.144531 142.597656 577.535156 141.988281 C 577.703125 141.726562 577.847656 141.488281 577.980469 141.277344 L 579.621094 139.972656 C 580.308594 139.851562 581.320312 139.9375 583 140.21875 C 587.230469 140.925781 586.347656 139.863281 588.113281 137.742188 C 589.878906 135.621094 590.933594 136.683594 594.988281 138.273438 C 599.042969 139.863281 596.046875 133.675781 600.453125 135.621094 C 604.859375 137.566406 606.800781 135.796875 607.679688 134.207031 C 608.5625 132.617188 612.972656 131.554688 614.203125 132.96875 C 615.441406 134.382812 616.144531 134.738281 621.257812 132.441406 C 626.371094 130.140625 628.132812 130.316406 629.542969 132.261719 C 630.953125 134.207031 631.835938 130.140625 635.359375 130.316406 C 638.886719 130.492188 638.179688 130.316406 640.648438 127.84375 C 643.117188 125.367188 645.9375 126.25 647.171875 128.371094 C 648.40625 130.492188 650.523438 129.433594 652.8125 126.957031 C 655.105469 124.484375 657.046875 127.3125 660.042969 127.3125 C 663.039062 127.3125 664.097656 125.011719 664.625 127.132812 C 665.152344 129.257812 667.269531 134.03125 670.445312 129.257812 C 673.617188 124.480469 673.441406 132.261719 676.085938 129.785156 C 678.730469 127.3125 681.195312 126.957031 683.664062 130.316406 C 686.132812 133.675781 684.898438 132.617188 688.601562 129.785156 C 692.304688 126.957031 692.65625 131.199219 694.597656 128.195312 C 696.535156 125.191406 696.886719 126.25 698.472656 128.550781 C 700.0625 130.847656 699.492188 133.714844 704.074219 129.839844 C 708.652344 125.964844 704.777344 133.359375 708.652344 130.542969 C 712.527344 127.726562 712.527344 129.484375 714.640625 133.011719 C 716.757812 136.53125 720.632812 134.769531 724.152344 133.714844 C 727.675781 132.65625 725.5625 130.191406 728.027344 136.53125 C 730.492188 142.871094 732.609375 137.589844 736.484375 134.066406 C 740.359375 130.542969 727.675781 125.964844 737.1875 127.726562 C 746.699219 129.484375 734.367188 124.914062 734.71875 120.335938 C 735.070312 115.757812 727.675781 120.335938 725.558594 115.757812 C 723.445312 111.175781 722.742188 113.289062 719.21875 114.699219 C 715.695312 116.109375 715.574219 120.945312 711.695312 117.589844 C 707.816406 114.230469 715.398438 115.289062 712.929688 113.695312 C 710.464844 112.105469 713.636719 110.867188 715.574219 107.507812 C 717.515625 104.148438 711.871094 105.738281 711.519531 103.621094 C 711.167969 101.5 708.699219 103.089844 706.054688 103.621094 C 703.410156 104.148438 703.058594 103.089844 702.882812 97.785156 C 702.707031 92.480469 700.941406 97.609375 696.886719 98.316406 C 692.832031 99.023438 694.066406 97.960938 693.183594 93.1875 C 692.304688 88.414062 688.953125 92.125 687.542969 89.121094 C 686.136719 86.117188 681.460938 90.578125 679.433594 89.652344 C 677.40625 88.722656 676.171875 92.96875 675.644531 89.074219 C 675.113281 85.1875 671.5 89.914062 672.382812 85.585938 C 673.265625 81.253906 669.824219 85.140625 669.914062 80.105469 C 670.003906 75.066406 665.859375 83.375 663.566406 79.75 C 661.273438 76.125 659.804688 73.089844 656.339844 73.738281 C 654.121094 74.15625 652.765625 76.859375 650.878906 72.765625 C 648.765625 68.1875 654.046875 69.597656 646.648438 69.597656 C 639.253906 69.597656 645.242188 67.652344 638.902344 64.835938 C 632.558594 62.015625 635.203125 67.996094 632.03125 65.179688 C 628.863281 62.363281 627.101562 71.167969 624.28125 68.703125 C 621.464844 66.238281 620.40625 75.046875 617.234375 72.226562 C 614.066406 69.410156 620.941406 56.847656 618.828125 57.902344 C 616.714844 58.960938 612.839844 57.195312 612.136719 53.675781 C 611.429688 50.152344 608.261719 52.265625 604.03125 55.4375 C 599.804688 58.605469 601.335938 53.226562 598.691406 51.8125 C 596.046875 50.398438 595.164062 44.917969 590.757812 44.386719 C 590.757812 44.386719 587.929688 45.972656 582.992188 41.550781 C 578.058594 37.128906 578.144531 43.316406 576.734375 42.433594 C 575.324219 41.550781 575.015625 37.660156 572.769531 40.667969 C 570.519531 43.671875 567.390625 42.480469 566.15625 37.351562 C 565.960938 36.53125 564.140625 33.625 557.210938 37.835938 C 554.105469 39.726562 553.726562 34.125 553.90625 30.765625 C 554.082031 27.40625 546.5 33.417969 545.089844 30.234375 C 543.679688 27.050781 542.972656 30.234375 542.09375 33.417969 C 541.210938 36.601562 539.625 31.648438 537.683594 28.289062 C 535.746094 24.929688 534.363281 30.667969 532.222656 26.34375 C 531.484375 24.859375 530.753906 24.519531 528.726562 24.375 C 526.273438 24.203125 524.28125 25.285156 523.40625 25.726562 C 521.820312 26.523438 521.289062 25.816406 519.878906 22.808594 C 518.246094 19.332031 508.128906 25.945312 507.183594 22.367188 C 506.835938 21.039062 506.570312 16.882812 503.042969 18.210938 C 498.953125 19.75 498.191406 17.503906 497.488281 15.734375 C 496.785156 13.96875 495.199219 15.382812 491.140625 16.445312 C 487.085938 17.503906 489.203125 13.96875 486.734375 14.675781 C 484.265625 15.382812 480.917969 22.101562 481.445312 18.566406 C 481.976562 15.027344 478.800781 18.210938 478.625 16.445312 C 478.449219 14.675781 477.039062 11.667969 473.335938 12.023438 C 469.636719 12.378906 471.925781 10.433594 467.695312 11.492188 C 463.464844 12.554688 464.703125 16.894531 461.179688 14.683594 C 457.652344 12.476562 461.085938 22.960938 457.117188 20.660156 C 453.152344 18.363281 454.03125 16.332031 452.445312 16.066406 C 450.859375 15.800781 450.15625 16.417969 449.449219 12.441406 C 448.746094 8.464844 450.066406 10.230469 446.101562 8.726562 C 442.132812 7.226562 442.75 14.5625 440.898438 9.699219 C 439.957031 7.226562 436.226562 6.027344 433.847656 6.605469 C 428.03125 8.019531 429.003906 10.085938 426.007812 6.460938 C 423.007812 2.835938 420.804688 8.847656 418.160156 7.699219 C 415.519531 6.550781 411.777344 4.695312 411.285156 6.019531 C 409.523438 10.777344 408.664062 10.097656 404.675781 11.675781 C 400.648438 13.273438 403.222656 12.460938 402.519531 16.339844 C 401.8125 20.214844 398.289062 20.214844 394.769531 16.339844 C 391.246094 12.460938 397.183594 13.800781 397.183594 9.734375 C 397.183594 5.664062 396.300781 7.964844 394.011719 6.550781 C 391.71875 5.136719 389.425781 9.734375 389.953125 6.726562 C 390.484375 3.722656 386.074219 6.902344 384.488281 3.546875 C 382.902344 0.1875 377.261719 10.261719 377.261719 7.609375 C 377.261719 4.957031 375.5 2.660156 373.03125 4.605469 C 370.5625 6.550781 368.621094 4.429688 368.09375 1.953125 C 367.566406 -0.523438 363.863281 6.371094 361.21875 2.308594 C 358.574219 -1.761719 361.746094 0.714844 356.636719 1.070312 C 351.523438 1.421875 348.878906 9.554688 348.347656 5.84375 C 347.820312 2.132812 344.472656 3.191406 342.882812 1.421875 C 341.296875 -0.347656 339.355469 6.726562 337.417969 3.546875 C 335.480469 0.359375 332.480469 4.074219 332.304688 4.960938 C 332.128906 5.84375 327.894531 7.433594 326.839844 4.253906 C 325.78125 1.070312 324.195312 5.488281 321.375 1.601562 C 318.554688 -2.289062 313.792969 7.082031 311.148438 7.082031 C 308.503906 7.082031 312.558594 4.78125 310.445312 1.777344 C 308.328125 -1.230469 306.566406 5.664062 304.800781 4.429688 C 303.039062 3.191406 301.804688 4.253906 301.097656 7.433594 C 300.394531 10.617188 297.574219 10.96875 296.867188 8.320312 C 296.164062 5.664062 294.226562 3.015625 290.875 4.074219 C 289.921875 4.378906 287.191406 6.195312 286.117188 6.195312 C 283.648438 6.195312 283.472656 4.074219 281.179688 3.898438 C 278.886719 3.722656 278.359375 14.242188 275.890625 8.761719 C 274.796875 6.328125 270.078125 3.855469 268.308594 5.789062 C 264.429688 10.03125 264.429688 7.734375 261.082031 5.964844 C 259.523438 5.144531 253.78125 7.09375 252.265625 8.265625 C 249.972656 10.03125 249.621094 12.152344 247.679688 8.972656 C 245.742188 5.785156 241.511719 8.265625 241.511719 10.738281 C 241.511719 13.214844 239.222656 14.277344 237.105469 10.738281 C 234.988281 7.203125 234.636719 8.265625 232.519531 10.386719 C 230.40625 12.507812 228.898438 10.679688 225.644531 10.5625 C 221.152344 10.402344 220.707031 20.640625 217.359375 15.867188 C 215.351562 13.003906 211.894531 13.742188 211.363281 15.691406 C 210.835938 17.636719 209.953125 17.8125 207.308594 15.867188 C 204.664062 13.921875 203.804688 18.058594 202.902344 21.347656 C 201.863281 25.136719 198.132812 21.222656 197.425781 20.90625 C 194.5 19.59375 193.816406 22 189.855469 18.75 C 185.976562 15.570312 188.09375 24.585938 185.976562 22.109375 C 183.859375 19.632812 185.851562 23.078125 180.566406 21.671875 C 175.28125 20.261719 177.046875 23.601562 172.464844 23.601562 C 167.886719 23.601562 171.054688 30.472656 167.179688 26.597656 C 163.304688 22.722656 163.660156 29.667969 160.136719 25.710938 C 158.003906 23.320312 150.800781 25.484375 147.808594 31.203125 C 147.808594 31.203125 138.117188 25.191406 137.058594 32.941406 C 136.003906 40.695312 133.359375 31.527344 131.949219 36.460938 C 130.539062 41.390625 131.773438 41.046875 129.308594 40.339844 C 126.972656 39.675781 117.683594 34.40625 115.917969 40.648438 C 114.101562 47.089844 110.105469 40.113281 107.640625 44.339844 C 105.171875 48.570312 107.640625 51.035156 101.300781 46.808594 C 94.957031 42.578125 96.71875 47.15625 96.71875 52.089844 C 96.71875 57.023438 92.488281 53.5 90.375 51.386719 C 88.261719 49.273438 87.382812 55.433594 82.800781 54.027344 C 78.21875 52.617188 80.160156 57.722656 79.101562 60.1875 C 78.046875 62.652344 72.761719 59.128906 72.410156 56.664062 C 72.058594 54.199219 68.886719 66.199219 64.660156 64.089844 C 60.433594 61.972656 62.195312 61.269531 56.910156 64.441406 C 51.625 67.609375 55.855469 75.402344 53.742188 72.230469 C 51.628906 69.058594 48.632812 72.753906 44.054688 71.695312 C 39.472656 70.640625 43 79.277344 38.769531 77.867188 C 34.542969 76.460938 32.429688 77.515625 30.316406 79.628906 C 28.203125 81.742188 26.261719 84.542969 24.324219 84.03125 C 22.390625 83.519531 18.867188 83.855469 18.867188 88.433594 C 18.867188 93.011719 18.867188 96.371094 13.230469 93.554688 C 7.59375 90.734375 7.945312 98.839844 3.71875 97.074219 C -0.507812 95.316406 3.71875 98.839844 0.546875 104.121094 C -2.621094 109.40625 9.003906 109.40625 9.003906 109.40625 C 12.175781 107.289062 12.175781 113.632812 16.050781 110.460938 C 19.925781 107.289062 20.980469 109.757812 24.503906 113.632812 C 28.027344 117.507812 30.84375 113.28125 34.015625 110.109375 C 37.1875 106.941406 38.597656 109.40625 44.230469 112.574219 C 49.871094 115.746094 50.222656 105.882812 55.859375 109.40625 C 61.496094 112.929688 63.609375 110.460938 65.371094 107.289062 C 67.132812 104.121094 68.894531 102.007812 76.996094 107.289062 C 85.097656 112.574219 85.097656 104.824219 88.269531 101.300781 C 91.441406 97.78125 95.316406 98.839844 102.359375 103.414062 C 109.40625 107.996094 110.816406 98.132812 115.746094 104.472656 C 120.679688 110.816406 119.621094 99.894531 126.667969 102.710938 C 130.015625 104.050781 131.691406 104.753906 132.871094 104.632812 Z M 183.0625 120.019531 C 175.296875 119.871094 154.445312 117.9375 135.421875 102.550781 C 135.746094 102.097656 136.105469 101.566406 136.53125 100.949219 C 139.703125 96.371094 144.988281 97.074219 151.679688 100.246094 C 155.566406 102.085938 155.773438 102.148438 156.363281 100.839844 C 164.957031 106.015625 174.1875 112.566406 183.0625 120.019531" fill-opacity="0" stroke="red"/></g></g></svg>