<svg version="1.1" id="Layer_1" xmlns="http://www.w3.org/2000/svg" xmlns:xlink="http://www.w3.org/1999/xlink" x="0px" y="0px"
	 width="100%" viewBox="0 0 1024 720" enable-background="new 0 0 1024 720" xml:space="preserve">
<path fill="#ffffff" opacity="1.000000" stroke="red" 
	d="
M507.261627,689.348877 
	C504.430298,683.439209 506.869812,677.034302 504.093903,671.249084 
	C503.466003,671.465454 502.842316,671.615784 502.275177,671.885254 
	C486.903564,679.190063 472.860046,672.922058 467.655457,656.604919 
	C463.870300,644.737976 465.855408,633.610046 471.367889,622.822510 
	C472.332947,620.934143 473.365570,619.080200 474.841675,616.323975 
	C468.330322,617.274048 462.628143,617.471558 456.891357,616.329773 
	C429.662537,610.910583 415.445099,581.221069 429.193085,558.253845 
	C436.437042,546.152222 451.675995,539.913452 464.521545,543.544495 
	C468.334839,544.622498 469.605652,546.228271 467.477692,549.870605 
	C466.558838,551.443298 465.799011,553.147461 465.229980,554.878357 
	C463.828674,559.140930 461.738495,560.944214 456.559967,560.531738 
	C447.348053,559.797974 439.715515,570.415100 441.647064,580.046265 
	C444.549622,594.519165 458.843781,602.698303 473.402557,598.216797 
	C486.731628,594.113831 496.075928,579.937195 494.584900,566.116943 
	C492.046387,542.587830 487.886353,519.384460 481.217163,496.637665 
	C473.428284,470.072052 463.507690,444.290314 453.163849,418.649017 
	C436.786041,378.050110 419.217987,337.880554 408.289764,295.298645 
	C402.864319,274.158295 397.944855,252.817566 397.848999,230.940536 
	C397.726868,203.076355 410.559296,182.238495 435.151611,168.841248 
	C436.020996,168.367615 436.901917,167.915131 438.462189,167.091217 
	C434.242157,164.297501 430.358002,161.891357 426.648682,159.240570 
	C413.872589,150.110443 403.622742,138.818802 398.974915,123.545876 
	C392.473022,102.180290 398.786102,83.736176 413.607513,67.975060 
	C429.697083,50.865433 450.325623,41.758587 472.747223,36.498871 
	C509.064606,27.979446 544.801880,29.893768 579.581238,43.870693 
	C595.423462,50.237247 609.444580,59.383045 620.161743,72.958015 
	C638.573975,96.280106 637.193970,125.365471 616.793579,147.032211 
	C610.698425,153.505753 603.836426,158.998795 596.293823,163.682785 
	C594.783325,164.620804 592.947632,165.192322 591.756470,167.381119 
	C598.033020,170.766830 604.261841,174.237839 609.458984,179.163940 
	C625.972595,194.816483 633.440002,214.044861 631.609619,236.684082 
	C627.740173,284.543152 612.323181,329.332306 594.788269,373.528412 
	C578.888733,413.602692 561.292236,453.032562 549.044861,494.489319 
	C542.289124,517.357178 537.524780,540.613464 535.351440,564.371033 
	C533.675171,582.694946 544.053406,596.617004 561.304443,599.375244 
	C575.516418,601.647522 588.770935,589.602051 587.796997,575.299316 
	C587.160095,565.946045 580.010681,559.572449 570.715454,560.522095 
	C568.023621,560.797119 566.715332,560.134949 565.738647,557.787109 
	C564.093506,553.832458 562.277466,549.948853 560.626221,546.243896 
	C566.670166,540.680603 582.700195,541.710632 591.919739,548.900940 
	C612.955872,565.307007 609.372742,598.442017 584.953125,611.730164 
	C575.759705,616.732849 565.888855,618.340088 554.923035,616.369263 
	C556.874451,620.316833 558.726440,623.611389 560.174438,627.074890 
	C565.030518,638.689697 565.691406,650.362000 559.666077,661.782471 
	C554.250732,672.046631 541.938293,680.009216 528.045898,672.194641 
	C527.338623,671.796814 526.579895,671.490173 525.250488,670.858643 
	C523.653442,675.553711 524.113831,680.241150 523.548401,684.702393 
	C523.008667,688.961548 521.577148,692.074463 517.371887,693.400085 
	C513.164978,694.726196 509.892792,693.273682 507.261627,689.348877 
M588.035706,218.793777 
	C593.552124,234.015671 588.711304,249.192230 575.419800,258.346375 
	C557.988953,270.351379 534.462097,266.600159 519.623962,249.521042 
	C518.028137,247.684158 517.010315,245.283783 514.771179,244.053024 
	C514.379028,244.330551 514.052124,244.473022 513.851685,244.718643 
	C512.799072,246.008530 511.812927,247.353546 510.741302,248.626923 
	C501.257385,259.896332 489.235504,265.768188 474.415619,265.254517 
	C452.487091,264.494354 436.153076,245.425125 439.781708,224.718704 
	C441.116760,217.100327 444.958374,210.911514 452.536621,206.411362 
	C455.007080,213.487762 464.878540,217.657715 457.609955,226.694260 
	C457.072906,227.361893 457.212952,228.624039 457.151978,229.616776 
	C456.679810,237.307327 461.715515,243.963791 469.955811,246.582886 
	C483.193024,250.790192 498.321991,241.604279 502.620361,226.749924 
	C508.257202,207.269989 495.023254,186.282974 473.963379,181.304413 
	C444.964142,174.448975 415.278992,197.920670 415.488403,228.402985 
	C415.663269,253.849472 421.677887,278.490997 428.678345,302.819214 
	C440.260345,343.069214 457.204224,381.323212 472.769257,420.085480 
	C484.498047,449.294281 495.391296,478.778870 502.875000,509.415497 
	C506.824432,525.583679 509.735931,541.926086 511.490601,558.487976 
	C511.730103,560.748657 510.968597,564.522400 514.915222,564.646301 
	C519.008789,564.774841 517.687561,561.050293 517.925415,558.983765 
	C520.784729,534.140503 525.820618,509.762726 533.105469,485.844696 
	C543.308716,452.344788 556.772156,420.071289 570.002625,387.709198 
	C588.028625,343.617310 605.499451,299.344360 612.120728,251.728271 
	C613.695312,240.404343 615.663696,229.108200 612.720581,217.611252 
	C604.668945,186.158859 570.567688,170.566330 543.794250,186.257828 
	C526.136780,196.606613 520.369324,220.019272 531.528259,236.050812 
	C539.661621,247.735626 555.373718,251.131638 565.728699,243.442932 
	C572.903503,238.115524 574.512817,230.597229 569.876770,222.975174 
	C568.853455,221.292709 568.699890,220.016388 569.712036,218.428940 
	C571.682007,215.339035 573.632446,212.235672 575.530273,209.101105 
	C576.780884,207.035599 578.219849,206.921753 580.028198,208.373093 
	C583.337341,211.029007 585.857056,214.292374 588.035706,218.793777 
M419.303314,98.913216 
	C439.952606,98.911018 460.602020,98.871284 481.251038,98.946342 
	C484.415955,98.957840 486.743713,98.231628 489.065308,95.711243 
	C501.054504,82.695381 528.088684,82.658890 540.340759,95.584511 
	C542.624878,97.994133 544.922729,98.965340 548.160950,98.950325 
	C568.143616,98.857597 588.127014,98.930550 608.110046,98.891548 
	C609.849609,98.888161 611.805725,99.427101 613.439209,97.590744 
	C613.087952,94.314980 611.417175,91.462822 609.653381,88.677849 
	C600.290527,73.893967 586.084473,65.443840 570.355469,59.261974 
	C545.661194,49.556530 519.975769,47.227886 493.819214,50.550388 
	C472.426270,53.267807 452.178467,59.522034 434.709564,72.804543 
	C427.059692,78.621086 420.689392,85.592094 416.987976,94.651260 
	C416.266815,96.416283 414.862640,98.623344 419.303314,98.913216 
M418.306793,124.230148 
	C424.370636,135.689163 433.679596,143.987839 444.963684,149.778076 
	C488.634674,172.187164 533.127686,172.303192 577.893250,153.340378 
	C590.149048,148.148804 600.680664,140.182251 608.395691,129.053329 
	C610.704468,125.723000 613.094543,122.287491 613.353088,118.105522 
	C611.958984,116.940651 610.601624,116.973587 609.285583,116.973785 
	C588.467773,116.976936 567.649780,117.035240 546.832214,116.968117 
	C544.010437,116.959015 542.302673,118.297089 540.486816,120.194092 
	C528.133972,133.099075 501.994629,133.349533 489.628448,120.536461 
	C487.047791,117.862541 484.451172,116.920013 480.891327,116.939606 
	C461.073303,117.048660 441.254272,116.969124 421.435699,117.010262 
	C419.700012,117.013863 417.777283,116.445000 416.168762,117.983337 
	C416.071106,120.078278 417.159058,121.788101 418.306793,124.230148 
M486.250946,632.803955 
	C483.731140,638.380737 482.302704,644.065369 484.251862,650.176270 
	C485.243439,653.284973 486.467133,656.566406 489.877045,657.194092 
	C493.167603,657.799744 495.237915,654.974060 496.984558,652.534424 
	C506.387512,639.401001 506.355988,624.513062 505.312988,608.380493 
	C497.965546,616.305481 491.104584,623.276611 486.250946,632.803955 
M535.605347,655.857788 
	C539.209778,658.837097 541.695801,657.143555 543.721069,653.854492 
	C545.819397,650.446899 546.269653,646.642029 545.915466,642.771118 
	C544.543213,627.776428 533.418518,619.075684 524.291870,608.029297 
	C524.291870,616.359436 523.736084,623.560791 524.430054,630.639587 
	C525.334839,639.869873 528.446899,648.472351 535.605347,655.857788 
M510.104706,104.258003 
	C507.340363,104.701042 504.635712,105.263161 502.792847,107.680115 
	C508.176666,113.606796 521.723999,113.527359 526.923828,107.544319 
	C522.186340,103.526924 516.605347,103.736366 510.104706,104.258003 
M514.042969,189.933121 
	C517.376038,189.698486 517.454590,186.865753 518.864075,184.466690 
	C515.908813,184.376755 513.528931,183.999985 510.853729,184.903290 
	C511.926880,186.721466 512.756653,188.127258 514.042969,189.933121 
z"/>
</svg>