<svg version="1.1" id="Layer_1" xmlns="http://www.w3.org/2000/svg" xmlns:xlink="http://www.w3.org/1999/xlink" x="0px" y="0px"
	 width="100%" viewBox="0 0 1024 720" enable-background="new 0 0 1024 720" xml:space="preserve">
<path fill="#ffffff" opacity="1.000000" stroke="red" 
	d="
M564.449158,441.342529 
	C552.833862,471.571594 542.674744,501.824036 536.803040,533.381104 
	C534.792603,544.185913 533.417847,555.074707 532.424561,565.987976 
	C530.513733,586.983032 547.528625,603.842346 568.101074,601.766602 
	C584.630249,600.098816 595.531372,582.344543 588.785461,568.078430 
	C585.198242,560.492065 577.896667,556.487488 569.623962,557.898987 
	C567.238708,558.305969 565.696838,557.889832 564.817261,555.678467 
	C563.849304,553.244934 562.254150,551.025818 562.052307,547.614563 
	C571.504211,544.018311 580.560669,544.621216 588.963623,550.322998 
	C605.382874,561.464172 607.917969,585.528748 594.405396,600.462585 
	C582.879211,613.201233 568.709412,616.921448 552.247314,612.641602 
	C551.121521,612.348877 549.997009,612.050049 548.865662,611.780334 
	C548.741516,611.750732 548.575806,611.895569 548.096313,612.104797 
	C550.034180,614.984131 552.100891,617.731934 553.828186,620.678650 
	C560.483826,632.033264 563.830933,643.893188 558.898254,656.894958 
	C552.763367,673.065125 536.921143,677.097351 525.355530,666.950012 
	C524.879150,666.532104 524.242615,666.296692 522.861694,665.509277 
	C522.306091,669.815430 521.738159,673.629883 521.347778,677.462463 
	C521.111938,679.777710 521.294678,682.137146 521.035706,684.448242 
	C520.595947,688.371765 518.643066,691.293335 514.369202,691.023926 
	C510.364655,690.771545 508.861694,687.772339 508.690521,684.038147 
	C508.416626,678.062317 507.755829,672.138794 506.705414,666.348572 
	C504.528870,665.909302 503.684052,667.431641 502.537079,668.244995 
	C492.572998,675.310669 480.980408,673.552551 474.187714,663.331543 
	C466.375824,651.576843 467.062775,639.116028 472.535706,626.636963 
	C474.818878,621.430969 478.151703,616.835754 482.118500,611.555603 
	C475.413910,613.104675 469.448303,614.596619 463.191345,614.361694 
	C439.426056,613.469604 421.988312,590.923828 427.763306,568.326965 
	C431.717804,552.853577 447.426605,542.639954 462.455505,545.983948 
	C464.498535,546.438538 468.008423,546.119446 467.245422,550.193481 
	C466.331390,555.074158 463.258972,558.385498 460.040497,557.901611 
	C447.512024,556.017883 436.686981,567.138489 438.857574,579.662964 
	C440.809753,590.927002 448.335754,599.121155 458.868073,601.450012 
	C470.775604,604.083008 484.144440,598.836853 490.899933,588.718201 
	C496.167145,580.828796 497.816437,572.361328 496.918243,562.692017 
	C492.235474,512.280151 475.119446,465.462524 456.346283,419.083740 
	C440.854614,380.811890 424.348724,342.908264 413.279663,303.009705 
	C406.421448,278.289337 400.080048,253.306488 400.847229,227.457947 
	C401.619080,201.451584 414.593872,182.500290 437.865295,170.729584 
	C440.048645,169.625244 442.314301,168.683655 444.714050,167.587830 
	C442.758545,165.398117 440.369751,164.543808 438.228668,163.332184 
	C428.879089,158.041306 420.309814,151.776352 413.377441,143.474365 
	C393.572296,119.756401 394.564758,91.443985 416.177582,69.242981 
	C431.930359,53.061504 451.709595,44.165474 473.319031,39.182316 
	C513.042297,30.022099 551.664612,32.914070 588.593567,51.083889 
	C599.003723,56.205925 608.042358,63.259579 615.806824,71.941895 
	C635.380493,93.829330 635.114319,123.148552 615.179260,144.705902 
	C606.594543,153.989227 596.401733,161.050827 584.988464,166.807816 
	C586.042114,169.036667 588.085144,169.068695 589.637573,169.717163 
	C618.895935,181.939072 631.523071,213.057800 628.835144,239.049911 
	C623.420837,291.406158 605.441711,339.975464 585.923828,388.181610 
	C578.800110,405.776245 571.691772,423.377136 564.449158,441.342529 
M505.625427,226.022308 
	C510.981567,202.375229 492.714752,179.104004 467.717834,177.311951 
	C437.298370,175.131149 411.857056,199.944321 412.554108,232.381836 
	C412.788544,243.289108 414.731232,254.195999 416.739868,264.994568 
	C423.345947,300.508911 435.259918,334.379242 448.559692,367.816254 
	C461.173706,399.529083 474.865021,430.819824 486.077423,463.081299 
	C495.924957,491.415527 504.084198,520.181335 507.588409,550.092346 
	C508.333954,556.456055 509.153259,562.811096 510.003326,569.694153 
	C513.191467,567.079163 516.272888,567.763916 519.440308,568.746704 
	C519.613342,567.738281 519.754639,567.101257 519.828674,566.456604 
	C522.448669,543.632202 526.144775,521.025513 532.291443,498.831146 
	C543.300659,459.078705 559.360779,421.202850 574.844788,383.109924 
	C593.421997,337.407166 610.837585,291.386993 616.213684,241.808990 
	C617.549377,229.491653 616.995667,217.585983 611.464905,206.214798 
	C598.082214,178.700256 563.912476,168.704620 540.059875,185.396652 
	C521.305481,198.520966 517.342346,224.443680 531.625305,240.567184 
	C541.867188,252.128891 559.327454,253.657822 569.544006,243.887573 
	C576.432007,237.300476 577.501831,228.354019 572.232910,221.401459 
	C570.042725,218.511398 570.994812,213.874344 574.640381,210.879135 
	C577.902771,208.198761 579.501282,211.554199 581.088013,213.243301 
	C591.652466,224.489761 588.914856,244.747269 575.609375,254.819809 
	C557.385620,268.615570 530.892395,263.123566 518.192444,242.951599 
	C517.163086,241.316666 516.619263,239.290604 514.637817,238.078018 
	C512.630005,241.012711 510.828308,243.992294 508.693726,246.710495 
	C493.497253,266.062317 465.085632,267.877411 449.609528,250.544388 
	C439.675568,239.418503 439.444946,222.016190 449.139069,212.368256 
	C450.407806,211.105576 451.636627,209.394119 453.721191,209.810684 
	C456.904816,210.446884 459.717621,218.754837 457.610535,221.225266 
	C455.464813,223.740952 454.339264,226.536575 454.259186,229.861801 
	C453.965973,242.041260 466.548279,252.435272 479.128479,250.386215 
	C492.939575,248.136642 501.344299,239.883804 505.625427,226.022308 
M491.507507,97.054825 
	C504.228302,84.551979 531.497253,86.677307 540.115784,99.554451 
	C541.708496,101.934135 544.014526,101.732376 546.341370,101.732719 
	C568.322266,101.735962 590.303162,101.754684 612.283997,101.711258 
	C613.846741,101.708176 615.632507,102.305794 617.130188,100.602966 
	C616.395325,95.896782 614.671387,91.472908 612.085205,87.345222 
	C603.602905,73.806900 591.060120,65.159401 576.784729,59.019402 
	C541.790833,43.968151 505.839569,42.726212 469.400330,52.932934 
	C452.001221,57.806454 436.121826,65.686409 423.678986,79.245064 
	C418.037048,85.392975 413.786865,92.379562 412.409210,100.590927 
	C414.453247,102.091972 416.175537,101.701248 417.796997,101.703506 
	C439.444855,101.733727 461.093475,101.636253 482.739929,101.814865 
	C486.510620,101.845978 489.155731,100.774277 491.507507,97.054825 
M523.372498,126.272797 
	C522.062500,126.506905 520.761353,126.849709 519.441040,126.957970 
	C508.760101,127.833687 498.668579,126.337456 491.032135,118.026031 
	C488.517456,115.289108 486.141785,114.122192 482.511627,114.143166 
	C461.034485,114.267265 439.556244,114.191963 418.078369,114.204803 
	C411.904938,114.208496 411.454590,114.937088 413.784821,120.861519 
	C414.028412,121.480881 414.295807,122.091530 414.570343,122.697990 
	C422.105988,139.342773 435.865845,149.383942 451.841614,156.461166 
	C485.802887,171.505890 520.941406,173.265503 556.709229,163.999893 
	C575.712158,159.077225 593.017090,150.898331 606.462891,136.022598 
	C611.881653,130.027573 615.836853,123.240898 617.310242,114.950089 
	C616.345276,114.657806 615.741455,114.316040 615.137024,114.314758 
	C591.495483,114.264801 567.853821,114.247566 544.212219,114.219101 
	C542.630310,114.217201 541.291992,114.613800 540.333130,116.011780 
	C536.424377,121.710381 530.612610,124.402336 523.372498,126.272797 
M480.826874,642.044861 
	C480.062988,646.313782 481.131439,650.328613 482.892487,654.109131 
	C486.146759,661.095093 491.724518,662.050476 497.102112,656.601807 
	C502.166656,651.470337 504.762207,644.957031 506.530304,638.165527 
	C509.362244,627.287354 508.409424,616.109009 508.614685,605.033630 
	C508.636536,603.855652 509.219818,602.401733 507.502747,601.174194 
	C501.471954,608.255310 495.317596,615.203613 489.489288,622.415344 
	C485.058319,627.898132 481.780914,634.047119 480.826874,642.044861 
M521.302246,623.418762 
	C521.024719,635.305847 524.102173,646.218445 531.500122,655.579529 
	C536.929626,662.449768 544.031372,661.205933 547.251892,653.029297 
	C550.256348,645.401245 549.056396,637.927551 545.463135,630.829651 
	C539.678955,619.403870 529.939697,611.144714 521.297302,600.237915 
	C521.297302,608.589478 521.297302,615.514282 521.302246,623.418762 
M509.243378,101.430672 
	C507.070496,102.225464 504.761261,102.770203 502.752472,103.865837 
	C498.230072,106.332420 498.140930,109.577637 502.600098,111.924088 
	C510.272980,115.961586 518.178528,115.980927 526.043884,112.411079 
	C527.990906,111.527374 530.260864,110.358269 530.280090,107.958893 
	C530.301697,105.254066 527.717285,104.341377 525.680603,103.274643 
	C520.738342,100.686058 515.413452,101.042725 509.243378,101.430672 
M508.923462,187.635437 
	C510.801514,190.445679 512.679565,193.255920 514.782349,196.402542 
	C518.359192,191.186523 521.538574,186.550156 524.714111,181.919373 
	C518.072449,181.919373 511.917694,181.919373 505.717957,181.919373 
	C505.931213,184.433319 507.531128,185.564972 508.923462,187.635437 
z"/>
</svg>