<svg version="1.1" id="Layer_1" xmlns="http://www.w3.org/2000/svg" xmlns:xlink="http://www.w3.org/1999/xlink" x="0px" y="0px"
	 width="100%" viewBox="0 0 1024 544" enable-background="new 0 0 1024 544" xml:space="preserve">
<path fill="#000000" opacity="1.000000" stroke="none" 
	d="
M534.529419,22.144382 
	C554.362732,25.143953 572.557251,31.107901 588.013123,43.688416 
	C598.675415,52.367126 606.295715,63.058125 608.285217,77.018639 
	C610.822937,94.826050 603.409973,108.749176 590.818420,120.507332 
	C588.295471,122.863342 585.519165,124.948097 582.933350,127.096687 
	C583.667114,129.353775 585.530945,130.010971 586.888000,131.165344 
	C602.324463,144.296448 609.264709,160.952713 607.612000,181.152786 
	C604.588745,218.104294 592.558716,252.618790 579.014465,286.724823 
	C566.607300,317.967316 552.774475,348.680542 543.863281,381.223663 
	C539.549988,396.975555 536.143982,412.912262 535.238770,429.252625 
	C534.693237,439.099701 540.375061,446.461548 549.262085,448.368225 
	C557.227905,450.077271 565.040955,444.040039 564.789673,436.347778 
	C564.667297,432.598938 563.099060,429.872803 559.133362,429.279510 
	C557.339661,429.011139 555.962280,428.479126 555.184143,426.748108 
	C552.862671,421.583954 550.499023,416.438751 548.175537,411.275543 
	C546.642578,407.869171 549.148315,407.345245 551.482056,406.688110 
	C566.571289,402.439087 583.250916,412.609344 587.179443,428.461456 
	C592.171936,448.606659 578.134644,468.831909 557.426575,471.335449 
	C556.445679,471.454041 555.469543,471.611847 554.129639,471.802917 
	C554.673645,476.521362 556.524536,480.834320 556.670959,485.459412 
	C556.981812,495.278564 554.366760,503.918762 546.797302,510.549744 
	C542.310486,514.480408 536.922913,515.941223 531.000183,515.364868 
	C528.108032,515.083374 526.498169,515.665894 526.170105,519.214966 
	C525.601868,525.363647 521.416199,529.067627 515.774780,529.360046 
	C509.240601,529.698792 505.185242,526.647766 503.468597,520.152588 
	C502.859772,517.849121 502.985901,514.750549 499.183502,515.377563 
	C481.371246,518.314697 470.057587,497.249298 473.310699,482.038757 
	C473.966492,478.972290 474.677582,475.917664 475.320526,473.047913 
	C474.082581,471.104462 472.254974,471.503479 470.667664,471.215179 
	C448.696655,467.224670 435.592163,444.199951 443.888916,424.169220 
	C449.478973,410.673126 464.436920,402.881317 477.637054,406.566589 
	C479.236603,407.013153 480.806000,407.455475 482.417480,409.068939 
	C479.719971,415.071716 476.998352,421.103729 474.301117,427.146637 
	C473.580597,428.760864 472.181061,428.939240 470.657166,429.279724 
	C465.937897,430.334229 463.599548,434.407837 464.838837,439.073242 
	C467.230652,448.077362 478.640045,451.499298 486.828827,445.486328 
	C492.639771,441.219421 495.230530,435.284851 494.532379,428.066040 
	C491.658264,398.348938 483.443817,369.986725 472.857727,342.202362 
	C460.766266,310.467041 446.561096,279.544373 436.107697,247.183945 
	C428.520660,223.696747 422.224121,199.837692 421.816864,175.002396 
	C421.521423,156.984177 429.115662,142.136261 443.182434,130.726562 
	C444.324738,129.800079 445.763153,129.139404 446.171631,127.428886 
	C445.188049,125.190269 442.929291,124.207726 441.192871,122.726570 
	C429.007416,112.332352 420.655273,99.786682 420.798676,83.250542 
	C420.959595,64.699425 430.798187,51.239098 445.266510,40.809566 
	C460.923553,29.523121 478.843384,24.191612 497.751709,21.731695 
	C509.877502,20.154171 521.996887,20.406832 534.529419,22.144382 
M453.846619,183.169907 
	C451.695496,174.971146 452.908295,167.287766 457.691376,160.305679 
	C463.134766,152.359772 465.067169,152.443192 469.887115,160.483185 
	C470.144104,160.911819 470.437378,161.321609 470.661896,161.766357 
	C473.123077,166.642319 477.780151,170.499359 476.608215,177.037415 
	C476.165497,179.507141 478.890869,181.297150 481.229919,182.419571 
	C487.553925,185.454178 495.845459,181.913391 499.527435,174.639969 
	C504.987274,163.854477 499.366882,150.223480 487.273865,144.921631 
	C468.956909,136.891083 446.875916,150.563187 445.296539,171.062576 
	C444.261169,184.500748 447.128510,197.557098 450.006042,210.540329 
	C456.408020,239.426010 467.405151,266.766022 478.560120,294.037109 
	C493.059021,329.483337 507.860291,364.824707 514.787659,404.281525 
	C516.764526,393.520111 518.828979,384.296112 521.335022,375.172424 
	C529.736267,344.585999 542.277405,315.530487 554.187622,286.242828 
	C567.813904,252.735367 580.280823,218.910782 584.330688,182.603180 
	C585.794067,169.483963 582.905151,158.069794 572.430115,149.412033 
	C557.432434,137.016144 535.229126,142.028336 529.180847,159.048859 
	C525.441284,169.572464 531.071167,181.094193 541.053589,183.346802 
	C547.920715,184.896408 553.442566,180.440628 552.883728,173.647141 
	C552.745422,171.966476 553.395264,170.749451 554.170227,169.483246 
	C556.691650,165.363266 559.400330,161.348602 561.736267,157.127045 
	C563.901733,153.213562 566.041809,153.927536 568.687317,156.511826 
	C576.402283,164.048416 578.045837,173.331009 575.535828,183.235443 
	C570.189026,204.334167 543.808411,213.620087 524.427734,201.411301 
	C520.972778,199.234879 517.861938,196.512207 514.627380,194.068344 
	C491.414307,217.050613 460.688507,205.932648 453.846619,183.169907 
M475.398041,50.958954 
	C464.830078,55.310677 455.015747,60.640850 447.608856,71.623154 
	C462.458466,71.623154 475.734894,71.620514 489.011322,71.626152 
	C490.888519,71.626945 491.958527,70.281471 493.214783,69.208961 
	C504.886658,59.244270 524.542419,59.158070 536.098938,69.181541 
	C538.142212,70.953804 540.146179,71.754539 542.804993,71.731758 
	C553.456909,71.640495 564.110291,71.728447 574.762695,71.670052 
	C576.823425,71.658760 579.012451,72.183250 581.403015,70.828766 
	C577.362732,64.075089 571.585693,59.627491 565.096436,56.240639 
	C536.301514,41.211945 506.518127,40.687408 475.398041,50.958954 
M482.411133,95.129211 
	C471.249908,95.129211 460.088684,95.129211 447.721802,95.129211 
	C452.748016,102.897873 458.527771,107.330566 465.015442,110.776993 
	C488.380951,123.189384 513.157227,125.237442 538.736267,120.100624 
	C552.816040,117.273102 565.852844,112.019974 576.491516,101.946732 
	C578.337952,100.198433 580.360596,98.453888 580.744995,95.166962 
	C567.215942,95.166962 554.073975,95.187340 540.932190,95.147461 
	C538.670532,95.140594 537.336975,96.609489 535.785278,97.855164 
	C524.875732,106.613327 506.456085,107.464958 495.647430,99.061913 
	C491.768829,96.046539 488.056183,94.615601 482.411133,95.129211 
M526.564392,475.374634 
	C527.678528,480.461487 528.476990,485.677979 532.241211,490.054565 
	C534.353760,484.432343 531.263428,476.545959 526.564392,475.374634 
M500.695892,484.080688 
	C502.796021,477.798218 502.796021,477.798218 501.858032,474.558289 
	C496.381927,481.680267 495.358856,485.153503 497.450409,489.878876 
	C499.036652,488.478363 499.620575,486.558228 500.695892,484.080688 
z"/>
</svg>