<svg version="1.1" id="Layer_1" xmlns="http://www.w3.org/2000/svg" xmlns:xlink="http://www.w3.org/1999/xlink" x="0px" y="0px"
	 width="100%" viewBox="0 0 1024 544" enable-background="new 0 0 1024 544" xml:space="preserve">
<path fill="#ffffff" opacity="1.000000" stroke="red" 
	d="
M536.495728,25.281124 
	C554.601196,28.242538 571.166992,33.882160 585.403320,45.145981 
	C595.353149,53.018322 602.796204,62.698341 605.226135,75.421959 
	C608.683533,93.525017 601.069336,107.525291 588.081909,119.255287 
	C584.900391,122.128716 581.332764,124.574638 577.977478,127.189980 
	C578.431152,129.327393 580.320496,129.640488 581.583923,130.575241 
	C599.314514,143.692429 606.834961,161.158524 604.710266,183.123932 
	C600.678284,224.808228 585.637634,263.217041 570.044189,301.491669 
	C557.796265,331.554474 545.227112,361.501923 537.936768,393.308441 
	C535.369629,404.508423 533.572510,415.823975 532.412170,427.230499 
	C530.866150,442.427734 542.926575,454.126617 556.320801,450.683502 
	C563.511292,448.835083 568.196167,442.630676 567.669678,435.653473 
	C567.277222,430.453156 564.096924,426.721802 558.913574,426.443207 
	C555.681885,426.269531 554.073181,424.916840 553.014221,422.176697 
	C552.294861,420.315094 551.401978,418.520172 550.577576,416.699554 
	C547.885986,410.755310 548.806885,409.207977 555.535461,408.728455 
	C567.355835,407.886047 576.510437,412.526123 581.961975,423.019989 
	C587.777039,434.213593 586.574829,445.293732 579.200867,455.497070 
	C573.051697,464.005676 564.252930,467.930511 554.051880,469.120880 
	C552.904785,469.254730 551.762207,469.430817 550.621582,469.612793 
	C550.490356,469.633759 550.385437,469.819824 550.032349,470.149963 
	C550.991455,474.498535 553.118286,478.674530 553.729980,483.318817 
	C554.689148,490.601227 553.316528,497.327728 549.343689,503.341461 
	C543.582947,512.061584 535.454773,514.776550 525.524231,511.414673 
	C523.486694,513.409912 523.698059,515.841309 523.421814,518.073181 
	C522.751343,523.491150 519.717651,526.717834 515.013672,526.854126 
	C510.329437,526.989807 506.553955,523.340698 505.795044,518.071533 
	C505.496338,515.997620 506.327576,513.728638 504.861755,511.856903 
	C479.071106,513.609253 470.915619,500.043335 479.780090,469.688232 
	C476.693634,469.215240 473.599182,468.942963 470.603119,468.247162 
	C457.279663,465.153046 448.170746,457.229675 444.984436,443.805878 
	C442.125183,431.760010 445.651489,421.372009 455.631317,413.650879 
	C462.115845,408.634003 469.545044,407.640625 477.423187,409.340088 
	C480.542572,410.013000 481.651337,411.630554 479.988037,414.710510 
	C478.882874,416.756836 477.937775,418.905029 477.099792,421.076630 
	C475.817505,424.399597 474.112305,426.225281 469.964111,426.565826 
	C462.025940,427.217468 459.242218,438.238495 464.893799,445.300110 
	C469.754913,451.374176 478.856720,453.034698 486.202423,449.187683 
	C494.100708,445.051239 497.953339,435.883392 497.146454,426.942261 
	C492.788300,378.647339 473.102600,335.124817 455.338440,290.993134 
	C443.513428,261.616211 432.436249,232.007874 427.245300,200.581650 
	C425.075500,187.445404 422.753265,174.269409 426.409515,161.002396 
	C430.060394,147.754959 437.653290,137.364624 449.168793,129.848465 
	C449.998688,129.306808 450.794159,128.710953 451.586121,128.114426 
	C451.689087,128.036880 451.674683,127.803558 451.794556,127.320297 
	C448.645538,124.883812 445.242889,122.523247 442.150208,119.809509 
	C430.790436,109.841568 423.261383,97.955208 423.644043,82.157646 
	C423.986938,68.003807 430.755737,57.046158 440.881226,47.944946 
	C454.686523,35.536175 471.445862,29.233795 489.369934,25.843739 
	C504.858917,22.914248 520.466675,22.717464 536.495728,25.281124 
M525.462341,169.806000 
	C527.519470,178.259781 532.237366,184.195374 541.088684,186.096848 
	C550.584412,188.136749 557.507385,180.882370 554.823059,171.623260 
	C554.336182,169.944000 554.683289,168.731781 555.481506,167.420181 
	C557.040710,164.858170 558.769714,162.380890 560.111145,159.709229 
	C562.220032,155.509247 564.471558,156.103043 567.325623,158.949402 
	C574.931946,166.535202 576.017151,179.918808 569.715515,189.925003 
	C558.978210,206.974411 533.919006,208.816269 518.880310,193.702271 
	C517.529968,192.345200 516.695190,190.319885 514.279053,189.840118 
	C513.308838,190.900146 512.322693,192.007126 511.305298,193.084549 
	C500.313324,204.724976 482.481689,207.344040 469.254517,199.266769 
	C454.902039,190.502335 451.216461,171.076187 461.732056,159.616974 
	C465.704010,155.288620 466.736877,155.372437 469.711060,160.231339 
	C471.189941,162.647369 472.669373,165.063828 474.197937,167.448425 
	C475.165314,168.957443 475.314972,170.342621 474.628693,172.126892 
	C472.397736,177.926849 474.751923,182.854446 480.626465,185.198792 
	C489.796814,188.858414 500.865997,182.361328 503.611023,171.840836 
	C507.968445,155.140839 493.423492,138.338882 474.465790,139.867310 
	C454.952423,141.440552 441.693573,156.690292 442.338776,176.420059 
	C443.107239,199.919189 449.355286,222.416428 456.713226,244.566544 
	C466.275421,273.352203 478.750000,301.021240 489.746185,329.258789 
	C501.526062,359.508606 511.306458,390.283752 514.531250,423.140198 
	C516.040405,420.352600 515.469421,417.601318 515.924438,415.019836 
	C516.386169,412.400269 516.702759,409.755493 517.127747,407.129028 
	C522.757690,372.337524 535.390259,339.762299 548.594543,307.351562 
	C565.234924,266.506836 582.759094,225.942474 587.188049,181.319183 
	C588.564209,167.453995 584.732666,155.760178 573.890015,147.111755 
	C563.568298,138.878830 551.777771,137.072632 539.713013,143.150848 
	C529.315430,148.389114 524.604126,157.277878 525.462341,169.806000 
M505.063843,41.579521 
	C500.783295,42.163071 496.456146,42.516415 492.230469,43.371159 
	C476.341248,46.585106 461.451447,51.988323 449.851837,64.000511 
	C447.146240,66.802307 444.445618,69.749237 443.831940,74.113205 
	C444.780914,74.314095 445.406494,74.560600 446.032837,74.562378 
	C460.346710,74.603088 474.660858,74.584358 488.974426,74.667648 
	C491.416626,74.681854 492.917358,73.344131 494.558258,71.865646 
	C505.555450,61.956997 524.553650,62.025875 535.249634,72.115410 
	C537.094788,73.855919 538.872375,74.686745 541.390381,74.671188 
	C554.539001,74.589935 567.688477,74.665451 580.837463,74.615257 
	C582.404724,74.609276 584.225891,75.177193 585.445068,73.494720 
	C585.858948,71.412880 584.460083,70.041855 583.456787,68.573410 
	C579.536194,62.834999 574.365112,58.420586 568.433899,54.904144 
	C549.125427,43.456741 527.991028,40.409260 505.063843,41.579521 
M555.501221,92.269363 
	C552.170654,92.269402 548.833923,92.397652 545.510925,92.238907 
	C540.733032,92.010651 536.877258,92.991798 532.859741,96.363342 
	C522.666199,104.917778 504.773193,103.986244 494.993439,95.032028 
	C492.853546,93.072769 490.753357,92.209946 487.899139,92.229813 
	C474.577576,92.322556 461.254822,92.239342 447.932709,92.281448 
	C446.549255,92.285820 444.883118,91.709412 443.718323,93.669991 
	C447.961517,102.469528 455.063934,108.574547 463.567444,113.122498 
	C488.704773,126.566719 515.304932,127.976730 542.609070,122.042480 
	C555.975159,119.137505 568.247620,113.687218 578.298462,104.085052 
	C581.604675,100.926376 584.719055,97.521912 585.929504,92.270256 
	C575.778992,92.270256 566.139893,92.270256 555.501221,92.269363 
M497.711945,475.253967 
	C494.763000,480.167999 491.993774,485.171265 494.001312,491.184235 
	C495.269470,494.982544 497.050690,495.274811 499.553589,492.331238 
	C504.323273,486.721893 506.962433,473.969482 504.769867,466.366852 
	C502.482727,469.230530 500.311554,471.948944 497.711945,475.253967 
M529.911011,472.603973 
	C528.148071,470.702881 527.001038,468.204681 524.213440,466.713593 
	C523.667664,475.382050 524.270935,483.486115 528.994873,490.779175 
	C530.039124,492.391418 530.996460,494.795135 533.365540,494.150330 
	C535.533447,493.560333 535.744446,491.115112 535.979492,489.145538 
	C536.722778,482.916992 534.078735,477.836487 529.911011,472.603973 
z"/>
</svg>