<svg version="1.1" id="Layer_1" xmlns="http://www.w3.org/2000/svg" xmlns:xlink="http://www.w3.org/1999/xlink" x="0px" y="0px"
	 width="100%" viewBox="0 0 1024 544" enable-background="new 0 0 1024 544" xml:space="preserve">
<path fill="#000000" opacity="1.000000" stroke="none" 
	d="
M471.470337,477.062500 
	C471.480927,473.536652 468.849548,473.761658 466.896454,473.183502 
	C448.847107,467.840424 438.026428,452.970154 438.691437,434.379944 
	C439.411255,414.257660 459.001312,399.084229 478.199707,403.778809 
	C483.547516,405.086517 483.958954,405.935272 481.703094,410.902588 
	C479.224060,416.361420 476.751617,421.823334 474.294891,427.292236 
	C473.403442,429.276642 472.482147,431.064941 470.351807,432.212646 
	C466.571564,434.249207 466.707275,437.470947 468.600037,440.758423 
	C471.115997,445.128113 476.651459,446.833221 481.734131,444.963104 
	C488.963409,442.303162 492.497345,435.890320 491.571350,426.766235 
	C489.921661,410.511963 486.770905,394.545746 482.249603,378.842194 
	C473.612793,348.844482 461.128052,320.291687 449.504028,291.415131 
	C438.116058,263.125000 427.506348,234.571304 422.321014,204.369858 
	C420.076996,191.299835 417.137329,178.189545 419.744659,164.772354 
	C422.653015,149.806213 430.053070,137.508667 442.404449,127.651398 
	C440.390747,125.797638 438.614960,124.155670 436.831390,122.522171 
	C427.482147,113.959557 420.842224,103.813881 418.697083,91.112831 
	C415.689728,73.306305 422.202179,58.693279 434.470337,46.373581 
	C448.211456,32.574757 465.453125,25.281494 484.186310,21.313330 
	C516.187134,14.534730 547.086487,17.496014 576.430054,32.592041 
	C585.417908,37.215919 593.302368,43.367218 599.603516,51.300842 
	C617.657288,74.032074 614.895447,103.071114 592.991211,122.351990 
	C591.156982,123.966545 589.385376,125.652290 586.574585,128.232056 
	C587.999634,128.988556 589.029724,129.309906 589.769470,129.961121 
	C607.306519,145.399078 612.666382,164.955063 609.934265,187.642380 
	C604.856323,229.809357 589.449280,268.771759 573.538208,307.619812 
	C562.242065,335.200073 550.945374,362.783997 543.964783,391.884155 
	C541.011414,404.196014 538.948364,416.649872 537.870789,429.259552 
	C537.095032,438.337372 544.288635,446.236145 552.664307,445.664368 
	C557.653564,445.323761 561.628235,441.830597 561.917725,437.457794 
	C562.028931,435.778015 561.992126,434.026459 560.496826,432.881744 
	C552.287537,426.597534 551.284912,416.337769 546.838684,407.989014 
	C545.198059,404.908417 548.549316,404.551941 550.421448,404.005524 
	C564.427429,399.917816 580.034180,407.024139 587.029419,420.565125 
	C597.310364,440.466248 586.964417,464.839935 565.037537,472.375275 
	C558.253784,474.706543 558.497314,474.684479 559.150085,481.890289 
	C560.287598,494.446442 557.931763,505.864563 547.026794,513.891541 
	C543.197205,516.710388 538.865906,518.470032 534.010803,518.276245 
	C531.158875,518.162476 529.586609,518.940552 528.581970,521.968750 
	C526.226990,529.066956 521.285095,532.408691 514.424683,532.315308 
	C507.937531,532.226990 503.090759,528.602600 500.968506,521.709106 
	C500.274139,519.453491 499.556976,518.209290 497.020752,518.333496 
	C481.102814,519.113403 469.231964,503.414673 470.000336,485.290527 
	C470.111877,482.660187 470.924744,480.059631 471.470337,477.062500 
M534.701416,154.294205 
	C533.762146,156.052872 532.603943,157.730850 531.920959,159.583954 
	C528.728394,168.246277 532.344238,177.273849 539.982788,180.017593 
	C544.352722,181.587265 548.740723,180.335541 550.346130,176.689865 
	C553.792053,168.864670 559.159790,162.196548 563.225342,154.760803 
	C565.357178,150.861694 567.304565,151.468628 570.087524,154.064484 
	C579.941833,163.256271 582.353333,178.665665 575.655151,190.784729 
	C564.589294,210.806198 538.574158,215.660370 519.101135,201.039017 
	C515.605957,198.414673 513.641846,198.553329 510.256683,201.181381 
	C494.263885,213.597260 471.920654,212.002090 458.948273,197.889984 
	C447.034576,184.929611 447.389923,164.279663 459.625916,153.831436 
	C462.103851,151.715546 464.085968,151.075562 466.043213,154.359543 
	C470.304718,161.509659 474.811615,168.519257 478.886932,175.772400 
	C481.222900,179.929886 484.581787,181.776062 489.101624,180.225815 
	C493.275604,178.794189 496.163574,175.963608 497.707245,171.776688 
	C501.093567,162.592133 496.072784,151.845703 486.334259,147.500839 
	C473.399933,141.730148 458.174652,147.837021 451.274597,160.995941 
	C445.343597,172.306839 448.094635,183.776672 449.878845,195.183395 
	C454.199921,222.809143 463.535461,248.976273 473.797333,274.843109 
	C484.295532,301.305847 495.789093,327.378967 504.831451,354.411499 
	C508.549927,365.528076 511.532288,376.858673 514.602905,388.448273 
	C515.054688,387.847931 515.353027,387.621887 515.416931,387.342255 
	C522.046326,358.333038 532.989441,330.806091 544.185242,303.359161 
	C556.822876,272.377625 570.079407,241.600754 577.097961,208.670258 
	C579.628052,196.799240 582.523926,184.885010 581.665588,172.657578 
	C580.790527,160.192352 573.926880,151.445892 562.368164,147.024353 
	C552.034180,143.071289 542.725220,145.379883 534.701416,154.294205 
M555.170044,54.358109 
	C537.993652,47.171368 519.990356,45.810493 501.759735,47.578564 
	C486.866730,49.022938 472.724121,53.283104 460.323212,62.125530 
	C457.995087,63.785618 455.555420,65.417160 454.026123,68.763916 
	C465.497589,68.763916 476.301971,68.736671 487.106018,68.786392 
	C489.325226,68.796600 490.739899,67.464394 492.375183,66.309242 
	C505.302399,57.177753 519.348145,55.953716 532.734436,63.796021 
	C539.556458,67.792702 545.902710,69.163734 553.280090,68.835197 
	C557.765137,68.635468 562.269104,68.892342 566.759583,68.767410 
	C569.469299,68.692017 572.301697,69.320389 575.412109,67.903282 
	C569.934387,61.355953 562.940002,57.949223 555.170044,54.358109 
M455.155151,99.978653 
	C461.468414,106.426125 469.245087,110.449326 477.581421,113.565620 
	C485.887634,116.670662 494.484528,118.560249 503.291931,119.262711 
	C526.351807,121.101929 548.425903,118.171570 568.300842,105.184105 
	C571.041931,103.392899 573.459900,101.316284 575.886841,97.955818 
	C563.956726,97.955818 553.004700,97.956032 542.052734,97.955658 
	C539.866943,97.955582 538.421997,99.402435 536.820923,100.584274 
	C523.938965,110.093063 505.246429,109.996880 492.537231,100.360252 
	C491.348175,99.458672 490.292969,98.156227 488.727539,98.132088 
	C477.596222,97.960457 466.463531,97.866623 455.331055,97.783157 
	C453.456299,97.769096 453.987122,98.676277 455.155151,99.978653 
z"/>
</svg>